<svg id="Calque_1" data-name="Calque 1" xmlns="http://www.w3.org/2000/svg" viewBox="0 0 544.32 190.38"><defs><style>.cls-1{fill:#de2a4c;stroke:#3c2b2d;stroke-miterlimit:10;}.cls-2,.cls-3{fill:#fff;}.cls-3{font-size:407.68px;font-family:RingbearerMedium, Ringbearer;}</style></defs><rect class="cls-1" x="211.41" y="137.7" width="170.65" height="52.17" rx="10.44"/><path class="cls-2" d="M242,288.83a5.14,5.14,0,0,1-1.84.52,5.46,5.46,0,0,0-2,.63,5.76,5.76,0,0,0-1.95,2.56,19.89,19.89,0,0,1-.47,2c-.61,2.2-1.43,5.17-2.48,8.9-.34.52-.85,1.27-1.51,2.26a4,4,0,0,1-.08.74A8.38,8.38,0,0,0,231,309a16.23,16.23,0,0,1-.38,2.33q-.91,2.64-1.84,6.49a35.39,35.39,0,0,1-1.71,5.38c-.27.55-.64,1.42-1.1,2.62-.07.56-.23,1.37-.46,2.41q-1.49,4.55-4.13,13.74c-.07.62-.18,1.49-.33,2.59a4,4,0,0,1-1,2,2.39,2.39,0,0,1-1.49.44c-1.17.09-1.87-.05-2.11-.41a12.25,12.25,0,0,0-.08-1.68,7.6,7.6,0,0,0-1-1.4,2.54,2.54,0,0,1-.68-1.43c0,.07,0-1,.08-3.13a7,7,0,0,0-.28-2.94,5.62,5.62,0,0,1-.85-.94,39,39,0,0,1-1-5l-.44-.74a5.54,5.54,0,0,1-.27-2.11,14.65,14.65,0,0,1,2.86-1.13,3.8,3.8,0,0,0,2.36-2.69,3,3,0,0,0-1.79-.58,7.69,7.69,0,0,0-2,.37,7.73,7.73,0,0,1-1.85.37,2.07,2.07,0,0,1-1.45-.55,2,2,0,0,0,.11-.66,7.24,7.24,0,0,0-.85-2.66,17.43,17.43,0,0,1-1.21-2.81,21.18,21.18,0,0,0,.16-2.22,4.69,4.69,0,0,1-.82-.94c-.06-.58-.18-1.39-.36-2.41q-.69-1.45-2-5c-.11-.76-.35-1.93-.74-3.52-.18-.44-.46-1.13-.82-2.06-.06-.11-.45-1.53-1.18-4.26a8.91,8.91,0,0,0,.05-1.51,8.18,8.18,0,0,0-1.15-2,3,3,0,0,1-.69-2.09,46.34,46.34,0,0,1-4.81-2.8c.19-.46,1.17-.91,3-1.35a4.81,4.81,0,0,1,.52.55c.13.88.54,1.32,1.24,1.32a13.76,13.76,0,0,1,1.76-.38,12,12,0,0,0,3.51-.11,6.67,6.67,0,0,1,1.87-.61l1.57-.22a10.67,10.67,0,0,1,2.25.44,5.55,5.55,0,0,0,3.9-.8,2.4,2.4,0,0,1,.55.75,2.25,2.25,0,0,1,.06.49c0,.61-.4.95-1.21,1a12.52,12.52,0,0,0-2.25.33,2.4,2.4,0,0,0-1.21,2.45,36.13,36.13,0,0,0,1.07,5.72c0,.78,0,2,.08,3.51a3.19,3.19,0,0,0,.72,1.1c.47.55.73.85.77.91a7.68,7.68,0,0,1,.68,2.55c.17,1.49.28,2.32.33,2.5.35,1.29.84,3.2,1.49,5.75.05.77.16,1.88.33,3.35a10.34,10.34,0,0,1,1.09,1.48,7.65,7.65,0,0,1,.39,2c.13,1.21.2,1.9.22,2.09a19.31,19.31,0,0,1,.71,2.61,27.22,27.22,0,0,0,.22,2.77c.17.74.61.95,1.32.64a2.18,2.18,0,0,0,1-1.52c.13-.64.26-1.28.41-1.92.31-.64.77-1.63,1.37-3,.08-.16.34-1.15.77-3a9.8,9.8,0,0,1,0-1.68,26.13,26.13,0,0,0,.82-2.78,20.05,20.05,0,0,1,.5-2.8,6.61,6.61,0,0,0,1.34-1.65,20,20,0,0,1,0-2.22,8.3,8.3,0,0,1,.74-2.26l.88-1.86s.17-1,.47-2.75a12.59,12.59,0,0,0,1-1.87,7.16,7.16,0,0,1-.2-1.68c.37-.89.91-2.51,1.62-4.83a1.59,1.59,0,0,0,0-1,17.3,17.3,0,0,0-1.62-3.24,2.92,2.92,0,0,0-1.34-.55,12.09,12.09,0,0,1-1.43-.3c0-.66.23-1,.57-1h11.27a6.1,6.1,0,0,1,.8.16,2.38,2.38,0,0,0,.9.08c.22-.11.58-.25,1.08-.44C242,287.16,242.14,287.8,242,288.83Z" transform="translate(-25.88 -286.71)"/><path class="cls-2" d="M276.43,299.27c-.35.05-.85.15-1.51.27a2.82,2.82,0,0,0-1.65,1.32,8.3,8.3,0,0,0-1,3,32,32,0,0,0-.35,4.12c0,.08,0,.87.11,2.38s.11,2.31.11,2.4v4.37a4.85,4.85,0,0,0,.09.55,2.26,2.26,0,0,1,.07.72c-.11,2.21-.16,3.46-.16,3.73a6,6,0,0,0,.11.9c.07.45.11.71.11.78v8.44c0,.11,0,.16,0,.17a.05.05,0,0,1,0,.05,13.05,13.05,0,0,0-1.73.32,2.57,2.57,0,0,1-1.43-.24,76.83,76.83,0,0,1-5.61-6.16c-.44-.58-1.1-1.43-2-2.53q-1.15-1.12-3.14-3.29c-.33-.55-.88-1.37-1.65-2.45-1.65-2-4-4.94-7-8.82a18.09,18.09,0,0,1-1.65-1.48,3.13,3.13,0,0,0-.17-.55c-.22-.35-.58-.87-1.1-1.57a.9.9,0,0,0-.57.85s.13.92.38,2.81a1.4,1.4,0,0,1-.05.5,2.28,2.28,0,0,0-.09.46c0,.73,0,1.86.1,3.39s.1,2.28.1,2.24v3.85c0,.11,0,1,0,2.8s0,2.68,0,2.78c0,3.82,1.36,5.84,4.09,6,.06,0,.13.08.21.23a1,1,0,0,0,.18.29,1.63,1.63,0,0,1-.14.83h-9.59c-.07,0-.41.05-1,.15s-.94.15-1,.15h-.44a.91.91,0,0,1-.25-.3,1.32,1.32,0,0,1,.61-1.29c.47-.15,1.17-.43,2.08-.83a3.12,3.12,0,0,0,1.62-2.36c.48-2.66.58-4.28.31-4.86a.72.72,0,0,1-.06-.66l.22-.28-.16-.25a7.93,7.93,0,0,1,0-1c0-.51.06-.87.06-1.09a9.6,9.6,0,0,0-.15-1.32,9.6,9.6,0,0,1-.15-1.32,14.73,14.73,0,0,0,.11-1.7c0-.06-.1-.24-.25-.55l.14-.14a1.27,1.27,0,0,0,.13-.6.18.18,0,0,0,0-.2c-.25-2.07-.38-3.46-.38-4.17v-3.79c-.13-2.17-.19-3.48-.19-4A1.59,1.59,0,0,1,243,302a.93.93,0,0,0,.07-.47,6.28,6.28,0,0,0-5.25-2l-.13-.14v-.91c.2-.24.69-.36,1.48-.36l2.21.12,2.21.1,2.05-.1,2.08-.12a2.6,2.6,0,0,1,.77.06,6.7,6.7,0,0,1,1.59,1.79q2.28,3.21,6.87,9.56c.62.79,1.56,2,2.8,3.52-.22,1.61,0,2.41.69,2.41a1.3,1.3,0,0,0,.44-.16,1.27,1.27,0,0,1,.47-.17q.35,0,1,1l.57,1a11.31,11.31,0,0,1,2.5,2.47c.08.31.21.77.39,1.37.15.21.26.31.36.31a.45.45,0,0,0,.27-.11.41.41,0,0,1,.17-.11c.49.53,1.16,1.31,2,2.33.31-.14.47-.28.47-.41a1.92,1.92,0,0,0-.11-.47,1.88,1.88,0,0,1-.11-.46v-2.94a2.31,2.31,0,0,0,0-.4,4.27,4.27,0,0,1,0-.68,11.65,11.65,0,0,0,.16-1.48q-.14-.79-.36-2.34a2.64,2.64,0,0,1,.06-.82c.07-.4.11-.63.11-.69a3,3,0,0,0-.08-.45,2.28,2.28,0,0,1-.09-.48,10,10,0,0,1,0-1.35c0-.71.06-1.19.06-1.43a1.61,1.61,0,0,0-.12-.46,2.69,2.69,0,0,1-.16-.5l.11-.74a3.24,3.24,0,0,0-.09-.85,5.82,5.82,0,0,1-.13-1,2.72,2.72,0,0,1,.11-.5,1.32,1.32,0,0,0,.09-.55c-.11-.75-.31-1.85-.58-3.29-.26-1-1.3-1.59-3.13-1.9a2.48,2.48,0,0,0-.11-1,4.11,4.11,0,0,1,1.95-.25l5,.2c-.11,0,.71-.06,2.47-.17a6.55,6.55,0,0,1,2.45.19Zm-10.2,21-.24.3-.17-.16.14-.58C266.27,320.12,266.36,320.26,266.23,320.26Z" transform="translate(-25.88 -286.71)"/><path class="cls-2" d="M290.41,301.14c-.07.27-.19.66-.35,1.15l-1.65.36a1.7,1.7,0,0,0-1.32.93c-.15.22-.33.53-.55.94,0,.13-.28,1.19-.71,3.19l-.11,11.54c-.13.47-.2.73-.2.77l.2.57-.06,4.26a7.42,7.42,0,0,0,0,2.42,8.52,8.52,0,0,0,.77,2.91,2.51,2.51,0,0,0,1,.85,5.45,5.45,0,0,0,2.86.8,4.14,4.14,0,0,1-.3,1.05h-3.19l-.95-.06-.92-.06-.74.06-.72.06-.5-.06-.54-.06-.37.06-.37.06-5.74.13c-.5,0-.75-.18-.75-.55s.13-.67.39-.74c.58-.11,1.17-.21,1.76-.3a2,2,0,0,0,1.32-.74l.33-1c.25,0,.65.07,1.18.16a8.37,8.37,0,0,0,.27-1.45,2,2,0,0,0-.27-.83,1.35,1.35,0,0,0,.08-.93,7.53,7.53,0,0,0-.52-.93,3.28,3.28,0,0,1-.36-.66,9.13,9.13,0,0,0,.47-1.65,1,1,0,0,0-.17-.63,2.85,2.85,0,0,0,.47-1.05s-.05-.63-.14-1.78a1.46,1.46,0,0,0-.19-.53,1.66,1.66,0,0,1-.19-.46.78.78,0,0,1,.22-.39q-.06.11-.06-.3V314.9a2.47,2.47,0,0,1,.13-.49,3.22,3.22,0,0,0,.12-.49.63.63,0,0,0-.08-.21.48.48,0,0,1-.08-.23c0,.07,0-.34.08-1.24,0-.18,0-.7-.11-1.54v-2.17a1.83,1.83,0,0,0-.39-.88,2,2,0,0,0-.16-1.13,7.49,7.49,0,0,0-.22-1.15,7.59,7.59,0,0,1-.55-.72c-.07-.18-.2-.45-.39-.82a3,3,0,0,0-1-1.1c-.42-.11-1.05-.31-1.9-.6a8,8,0,0,1,.31-1h.24l.51.05.51.06Z" transform="translate(-25.88 -286.71)"/><path class="cls-2" d="M327.4,299l-2.39.41a3.74,3.74,0,0,0-2.47,1.76,11.74,11.74,0,0,1-.39,1.21l-2.09,5.22q-.4.45-1.23,1.32a2.15,2.15,0,0,1-.06.44,3.45,3.45,0,0,0-.55,1.48,7.59,7.59,0,0,1-.33,1.38,32.35,32.35,0,0,0-1.54,3.79,17.12,17.12,0,0,1-1.43,3.19c-.21.33-.52.84-.9,1.54-.08.33-.2.79-.39,1.4-.82,1.79-2,4.49-3.43,8.08-.06.36-.15.88-.28,1.54a2.38,2.38,0,0,1-.85,1.2,2.63,2.63,0,0,1-1.23.25c-1,.06-1.56,0-1.76-.25a3.85,3.85,0,0,0-.09-1,6.26,6.26,0,0,1-1.37-1.65,13.7,13.7,0,0,0-.16-3.58,4.14,4.14,0,0,1-.69-.54,15.54,15.54,0,0,1-.83-3c-.11-.11-.23-.26-.38-.44a2.88,2.88,0,0,1-.22-1.24,15.12,15.12,0,0,1,2.36-.66,2.73,2.73,0,0,0,2-1.59,3.19,3.19,0,0,0-1.45-.33,8.86,8.86,0,0,0-1.67.22,8.63,8.63,0,0,1-1.55.22,2.12,2.12,0,0,1-1.21-.33.82.82,0,0,0,.11-.39,3.35,3.35,0,0,0-.71-1.56,10,10,0,0,1-1-1.65c.05-.29.1-.73.14-1.32a2.75,2.75,0,0,1-.69-.55c-.05-.35-.16-.82-.3-1.43a33,33,0,0,1-1.68-2.94,20,20,0,0,0-.6-2.06l-.69-1.21c0-.07-.37-.91-1-2.53a2.27,2.27,0,0,0,0-.88,4.9,4.9,0,0,0-.94-1.15c-.45-.46-.65-.87-.57-1.24a39.5,39.5,0,0,1-4-1.65c.16-.25,1-.52,2.47-.79a4.5,4.5,0,0,1,.44.33.9.9,0,0,0,1,.77,13,13,0,0,1,1.45-.22,13.59,13.59,0,0,0,2.94-.06c.13-.05,1.08-.22,2.86-.49a12.38,12.38,0,0,1,1.87.27,6.77,6.77,0,0,0,3.3-.49,3,3,0,0,1,.44.44c0,.11,0,.21,0,.3,0,.35-.64.57-1.93.66s-1.94.61-1.94,1.57a16,16,0,0,0,.88,3.38,12.22,12.22,0,0,0,.08,2.06l1.24,1.2a3.44,3.44,0,0,1,.55,1.49c.16.88.25,1.36.27,1.46.31.76.73,1.9,1.26,3.4,0,.44.13,1.09.28,1.95a8.86,8.86,0,0,1,.91.88c.11.59.28,1.4.52,2.42a14.68,14.68,0,0,1,.58,1.54,10.13,10.13,0,0,0,.19,1.62c.13.42.49.54,1.1.36a1.32,1.32,0,0,0,.82-.88c.13-.37.25-.74.36-1.13l1.15-1.76a17.48,17.48,0,0,0,.63-1.73,6,6,0,0,1,0-1,9.58,9.58,0,0,0,.68-1.62,10.89,10.89,0,0,1,.42-1.67,4.82,4.82,0,0,0,1.12-1,6.71,6.71,0,0,1,0-1.29c0-.13.49-.93,1.37-2.42,0,0,.15-.58.39-1.64a6.31,6.31,0,0,0,.79-1.08,2.82,2.82,0,0,1-.13-1c.29-.54.74-1.49,1.34-2.86a.71.71,0,0,0,0-.61,9.83,9.83,0,0,0-1.34-1.89c-.52-.09-1.29-.26-2.31-.5,0-.4.17-.6.46-.6h9.4a4.91,4.91,0,0,1,.66.11,3.05,3.05,0,0,0,.74.05c.2-.07.51-.16.91-.27C327.42,298,327.53,298.42,327.4,299Z" transform="translate(-25.88 -286.71)"/><path class="cls-2" d="M354,323.75c-.06.95-.18,2.3-.36,4-.22.48-.5,1.15-.83,2-.07.36-.21.88-.41,1.54a4.18,4.18,0,0,1-.71,1c-.48.59-.86.88-1.16.88h-7l-2.48-.08c-1.52-.06-2.34-.08-2.47-.08h-4.23l-1.69-.15c-1-.11-1.59-.16-1.72-.16h-4.15l-.36-.38a12.82,12.82,0,0,1,2.4-1.65,2.61,2.61,0,0,0,1.43-2.2v-8.68a32.9,32.9,0,0,1,.65-5.69,6.38,6.38,0,0,1-.13-2.75,1.41,1.41,0,0,1-.5-1.15s.19-.79.55-2.25a1.66,1.66,0,0,0-.27-.77q-.39-.69-.42-.72a6,6,0,0,1-.16-1.81v-1.87a4,4,0,0,0-.38-1.51,3,3,0,0,0-1.35-1.26l-1.65-.75c.26-.6.53-.92.82-1a16.07,16.07,0,0,0,2.45.06l1.7-.42h4.87l1.66.2c1,.13,1.82.2,2.35.22q.33,0,5.49-.36,1.18-.09,6.19.17a.88.88,0,0,1,.44.74,2.19,2.19,0,0,1-.18.71,2.17,2.17,0,0,0-.18.69q0,.9-.58,6a2.19,2.19,0,0,1-.79.52,30.18,30.18,0,0,1-1-2.94,2.4,2.4,0,0,0-2-1.9l-1.24-.27a2.77,2.77,0,0,0-1.32-.06,19,19,0,0,1-5.25.09,12.32,12.32,0,0,0-3.35.08c-.22.05-.37.27-.44.63a8.75,8.75,0,0,1,.08,5.69c0-.11.06.35.06,1.37,0,.26-.05.79-.14,1.6a5.89,5.89,0,0,0-.05,1.59c0,.18.19.42.52.72h10.36l1-.33a1.85,1.85,0,0,0,1.07-.86,14,14,0,0,1,1-2,1.07,1.07,0,0,1,1.12.6c-.07,1-.14,2.38-.22,4,0,1.08-.14,2.67-.38,4.76-.07.31-.44.41-1.1.3a11.33,11.33,0,0,0-1.26-1.73,5.23,5.23,0,0,0-3.05-1.27h-3.8a11.53,11.53,0,0,1-1.4-.14,13.09,13.09,0,0,0-1.56-.13c-1,0-1.59.28-1.85.85a4,4,0,0,0-.43,1.48,15.75,15.75,0,0,0,.19,1.87,12.5,12.5,0,0,1,.16,2.12,11.65,11.65,0,0,1-.26,1.44,8.66,8.66,0,0,0-.23,1.66,2.82,2.82,0,0,0,.11.85,3.71,3.71,0,0,0,1.49,1.6,5.48,5.48,0,0,0,2.25,1.07l.27.11a1.91,1.91,0,0,0,.49.08h4.57a6,6,0,0,0,2.58-.49,8.68,8.68,0,0,0,2.83-2.2,5.64,5.64,0,0,0,1.62-3.24A2.12,2.12,0,0,1,354,323.75Z" transform="translate(-25.88 -286.71)"/><path class="cls-2" d="M390.13,331.94a4.61,4.61,0,0,1-.71.74,4.45,4.45,0,0,1-1.79.69h-3.3a16.8,16.8,0,0,1-2.5-.14c-.4-.15-1-.35-1.84-.63s-1.91-1.32-3.65-3.3c-.15-.16-.86-1.34-2.15-3.54-1.15-2-2.06-3.67-2.72-5a12.33,12.33,0,0,0-.88-2c-.18-.2-.64-.27-1.37-.22l-1.4.17c-.61,0-1.5-.05-2.69,0-.13,0-.29.11-.47.33.07.71.16,3,.27,6.73a15.79,15.79,0,0,0,.44,2.89,6,6,0,0,0,.28,1.45,3.26,3.26,0,0,0,1.87,1.43l2.09.61a2.68,2.68,0,0,1-.06.71,4.19,4.19,0,0,1-1.62.33H365l-.74-.14a5.77,5.77,0,0,0-1-.13c-.56,0-2.05.09-4.45.27h-2.77a2.48,2.48,0,0,1-1-.25,2.46,2.46,0,0,0-.07-.33,1.3,1.3,0,0,1-.07-.35,13.83,13.83,0,0,0,1.76-.55,3.68,3.68,0,0,0,1.65-1.6,7.67,7.67,0,0,0,.38-2.53c0-.22.07-.78.19-1.7a16.26,16.26,0,0,0,.17-1.92c0-2.49,0-3.84.07-4a3.51,3.51,0,0,1,.51-1,3.63,3.63,0,0,1-.5-.74,5.58,5.58,0,0,1-.14-1.4V314s0-.3-.08-.85c0,.22.1-1,.25-3.63a1.67,1.67,0,0,0-.14-.19,6.42,6.42,0,0,1,0-2.83,15.28,15.28,0,0,0-.36-3.3,8.86,8.86,0,0,0-.49-2.31,2.68,2.68,0,0,0-1.57-.93l-1.62-.36c0-1,0-1.26-.08-.66a.51.51,0,0,1,.55-.47q1.13,0,3.6-.24l2.33-.22H365a13,13,0,0,0,2-.17,11.66,11.66,0,0,1,1.79-.16,20.35,20.35,0,0,1,2.33.16l2.58.55a2.67,2.67,0,0,0,.55.25,8.19,8.19,0,0,1,4.68,2.5,10.44,10.44,0,0,1,2,4.18c0,.29,0,.72.08,1.29a11,11,0,0,1-.11,2.06,9.92,9.92,0,0,1-1.37,4.4,26.24,26.24,0,0,1-3.6,3.84,1.88,1.88,0,0,0,.22,1l3.46,6.65a23.38,23.38,0,0,0,5,6.13,8.75,8.75,0,0,0,2,.71,4.36,4.36,0,0,0,1.81.14,6,6,0,0,1,1.57-.17A2.69,2.69,0,0,1,390.13,331.94Zm-15.06-23.52a3.51,3.51,0,0,0-.13-1.21,16,16,0,0,0-2.34-4.67,5.79,5.79,0,0,0-2.94-1.81,14.06,14.06,0,0,0-3.46-.14,2.62,2.62,0,0,0-.77.3c-.29,3.15-.48,5.7-.55,7.64a3.27,3.27,0,0,1,.27.63c0,.26-.08,1.3-.24,3.13a15.75,15.75,0,0,0,.08,3.63l.22.25h2.72a4.48,4.48,0,0,0,1,.11,5.49,5.49,0,0,0,3.12-1,5.76,5.76,0,0,0,1.83-1.69A10.77,10.77,0,0,0,375.07,308.42Z" transform="translate(-25.88 -286.71)"/><path class="cls-2" d="M410.25,323.92a9,9,0,0,1-.65,2.37,11.54,11.54,0,0,1-1,2.19,19.79,19.79,0,0,1-2.74,2.75,6.58,6.58,0,0,1-2.09,1,21,21,0,0,1-6.3,1l-1-.05a12.33,12.33,0,0,0-1.46-.06q.09.26.09-1a2.53,2.53,0,0,0-1.82-.66,1.09,1.09,0,0,0-.77.36,5.62,5.62,0,0,0,.83.39.65.65,0,0,1-.66.49,13.81,13.81,0,0,1-2.34-.44,10.52,10.52,0,0,1-3.43-1.32,5.31,5.31,0,0,1-.55-2.2,29.74,29.74,0,0,1-.22-4,22,22,0,0,1,.22-3.49,3.94,3.94,0,0,0,.88-.11,1.69,1.69,0,0,1,.19,1c0,.66,0,1,0,1l.41,1.95a5.84,5.84,0,0,0,.75,1.2,13.4,13.4,0,0,0,1.48,1.82,6.56,6.56,0,0,0,2.45,1.1c.55.16,1.09.34,1.64.52a6.59,6.59,0,0,0,1.74.3,1,1,0,0,0,.41.17,1.45,1.45,0,0,0,.33-.06,1.76,1.76,0,0,1,.33-.05,10.28,10.28,0,0,1,1,.2,9.53,9.53,0,0,0,1,.21,1.59,1.59,0,0,0,.53-.32,2.29,2.29,0,0,1,.65-.37l2.25-.46c.51-.11.93-.61,1.24-1.49l.55-1c0-.13,0-.33,0-.61a4.66,4.66,0,0,1,.33-.68,1.82,1.82,0,0,0,.28-.64,5.22,5.22,0,0,0-.25-1.73,11.67,11.67,0,0,0-1.13-1.95l-.88-.63a15.31,15.31,0,0,0-4.61-2.67l-1.76-1a36.12,36.12,0,0,1-4.42-2.47l-.64-.28a12.25,12.25,0,0,1-1.7-1.78c-.84-1.06-1.3-1.63-1.37-1.71,0-.25,0-.64-.06-1.15-.11-.18-.26-.48-.47-.91,0-.38,0-.91-.08-1.59a.69.69,0,0,0,.17-.38c-.21-.48-.31-.71-.31-.69a12.21,12.21,0,0,0,.58-1.29,11.87,11.87,0,0,1,.39-1.65,10.2,10.2,0,0,1,1.45-1.57,2.84,2.84,0,0,1,.58.3,4.45,4.45,0,0,1,.33-.9,11.26,11.26,0,0,1,4.64-3,19.8,19.8,0,0,1,4.65-.44l2.77.3c1.76.2,2.69.31,2.78.31l1.22-.16c.74-.1,1.16-.15,1.25-.15.51,0,.77.22.77.66l-.41,4.54v2.39s0,.35-.06,1-.05,1-.05,1.32a.48.48,0,0,0-.18.11.53.53,0,0,1-.29.11h-.63c-.06-.59-.18-1.42-.36-2.5a5.62,5.62,0,0,0-3.54-4.21,16.8,16.8,0,0,0-4.92-.49,8.17,8.17,0,0,0-2.26.55,5.49,5.49,0,0,0-2.61,2.39,2.71,2.71,0,0,0-.43,1.48,7.56,7.56,0,0,0,.85,3.11q.35.33,1,.9a17.12,17.12,0,0,0,5.63,3.44q5.91,2.42,8.22,5.33a6,6,0,0,1,1.15,2.5A16.18,16.18,0,0,1,410.25,323.92Z" transform="translate(-25.88 -286.71)"/><path class="cls-2" d="M439.81,323.75c-.05.95-.17,2.3-.35,4-.22.48-.5,1.15-.83,2-.07.36-.21.88-.41,1.54a4,4,0,0,1-.72,1c-.47.59-.86.88-1.15.88h-7l-2.47-.08c-1.52-.06-2.34-.08-2.47-.08h-4.23c-.11,0-.68-.05-1.69-.15s-1.59-.16-1.72-.16h-4.15l-.36-.38a12.58,12.58,0,0,1,2.39-1.65,2.61,2.61,0,0,0,1.43-2.2v-8.68a33.09,33.09,0,0,1,.66-5.69,6.36,6.36,0,0,1-.14-2.75,1.41,1.41,0,0,1-.49-1.15s.18-.79.55-2.25a1.6,1.6,0,0,0-.28-.77c-.25-.46-.39-.7-.41-.72a5.71,5.71,0,0,1-.16-1.81v-1.87a4.15,4.15,0,0,0-.39-1.51,2.89,2.89,0,0,0-1.34-1.26l-1.65-.75c.25-.6.53-.92.82-1a16,16,0,0,0,2.45.06l1.7-.42h4.86l1.67.2c1,.13,1.81.2,2.35.22q.33,0,5.49-.36,1.19-.09,6.18.17a.86.86,0,0,1,.44.74,2.4,2.4,0,0,1-.17.71,2.17,2.17,0,0,0-.18.69q0,.9-.58,6a2.28,2.28,0,0,1-.8.52,28.72,28.72,0,0,1-1-2.94,2.4,2.4,0,0,0-2-1.9l-1.23-.27a2.77,2.77,0,0,0-1.32-.06,19,19,0,0,1-5.25.09,12.3,12.3,0,0,0-3.35.08c-.22.05-.37.27-.44.63a8.81,8.81,0,0,1,.08,5.69c0-.11.05.35.05,1.37,0,.26,0,.79-.13,1.6a6,6,0,0,0-.06,1.59,1.41,1.41,0,0,0,.52.72h10.36l1-.33a1.89,1.89,0,0,0,1.07-.86,14.89,14.89,0,0,1,1-2,1.09,1.09,0,0,1,1.13.6c-.07,1-.15,2.38-.22,4,0,1.08-.15,2.67-.38,4.76-.08.31-.45.41-1.1.3a10.86,10.86,0,0,0-1.27-1.73A5.21,5.21,0,0,0,431,317H427.2a11.35,11.35,0,0,1-1.4-.14,13.22,13.22,0,0,0-1.57-.13c-1,0-1.58.28-1.84.85a4,4,0,0,0-.44,1.48,18.32,18.32,0,0,0,.19,1.87,12.73,12.73,0,0,1,.17,2.12,14,14,0,0,1-.26,1.44,8.07,8.07,0,0,0-.24,1.66,3.18,3.18,0,0,0,.11.85,3.75,3.75,0,0,0,1.5,1.6,5.51,5.51,0,0,0,2.24,1.07l.28.11a1.85,1.85,0,0,0,.49.08H431a6,6,0,0,0,2.59-.49,8.68,8.68,0,0,0,2.83-2.2,5.77,5.77,0,0,0,1.62-3.24A2.1,2.1,0,0,1,439.81,323.75Z" transform="translate(-25.88 -286.71)"/><path class="cls-2" d="M222.06,407.82a5.84,5.84,0,0,0-1.55.12,2.11,2.11,0,0,1-.75.12,11.38,11.38,0,0,1-1.75-.23,10.1,10.1,0,0,0-1.72-.23H213a4.36,4.36,0,0,0-.63.11l-.61.11H210a6.76,6.76,0,0,0-1,.11,5.6,5.6,0,0,1-1.12.08,2,2,0,0,1-1-.44q-.1-.52.09-.69a23.09,23.09,0,0,0,2.2-1.21c.12-.11.59-.69,1.4-1.76a5.2,5.2,0,0,0-.42-2.88q-1.72-3.7-4.31-8.71a26,26,0,0,0-2-3.41.28.28,0,0,0-.17-.05c-.18,0-.42.39-.71,1.18l-.66,1.81q-.79,1.38-2.34,4.15a16.71,16.71,0,0,1-.43,1.9,24,24,0,0,0-1.13,2.28.83.83,0,0,0-.28.05c-.09.31-.23.77-.44,1.38s-.64,1.49-1.15,2.72a1.62,1.62,0,0,0,0,.44,1.86,1.86,0,0,0,.45,1,1.05,1.05,0,0,0,.73.47,7.72,7.72,0,0,0,.36,1.21c-.26.42-.45.63-.58.63H195a2.92,2.92,0,0,1-.48-.13,3.31,3.31,0,0,0-.68-.17,2.86,2.86,0,0,0-1.26.06l-5,.24a1,1,0,0,0-.42.06,2.79,2.79,0,0,1-.51.08c-.48,0-.69-.39-.63-1.18a1.39,1.39,0,0,1,1-.69c.68-.11,1-.17,1.07-.19A15.59,15.59,0,0,0,190,405a23,23,0,0,0,2.5-2.86c.58-.77,1.54-2.28,2.86-4.53,1-1.74,2.37-4.35,4.09-7.84a3.63,3.63,0,0,1,.11-.71c.6-1.28,1.18-2.58,1.73-3.9q-.4-1-6.59-13.77c-.32-.77-.81-1.92-1.49-3.46-.35-.57-.85-1.44-1.51-2.61a1.84,1.84,0,0,1,0-.44,3.49,3.49,0,0,0-.79-1.76,6,6,0,0,0-1.36-1.46,4.48,4.48,0,0,0-1.2-.57,4.7,4.7,0,0,1-1.07-.09,1.13,1.13,0,0,1-.77-1.23.59.59,0,0,1,.28-.52h13c.06,0,.19.17.39.52-.11.49-.28.77-.5.82s-.44.1-.66.14a1.15,1.15,0,0,0-.16.61,6.15,6.15,0,0,0-.69,1.23,2.56,2.56,0,0,0,.06,1.49c.22.47.63,1.58,1.23,3.32,0,.33.12.81.25,1.43a1.48,1.48,0,0,0,.55.59,2.62,2.62,0,0,1,.77,1.42c.13.47.26,1,.38,1.45a3.72,3.72,0,0,1,.47.52c.57,1.32,1.46,3.25,2.67,5.77a2.14,2.14,0,0,0,.57-.49q2.17-4.42,5.55-12a12.3,12.3,0,0,0,.61-1.76,4.8,4.8,0,0,0,0-1.21c-.09-.71-.14-1.12-.14-1.23a15.06,15.06,0,0,1-1.32-1c-.07-.26-.19-.64-.36-1.13a4.69,4.69,0,0,1,1.93-.52q.6.1,6.84.22l1.15,0,.75-.11c.25,0,.4.31.44.8q-1,.39-3,1.26a4.3,4.3,0,0,0-1.15,1.08c-.11.25-.27.62-.47,1.1a.65.65,0,0,0-.47.19l-1.12,2.11c0,.11,0,.31-.06.58a1.46,1.46,0,0,0-.41.58,5.22,5.22,0,0,1-.44,1.21,3,3,0,0,0-.8,1q-.87,2.15-2.69,6.43-1.08,2.28-2.94,7,3.38,7.5,4.23,9.26,3.14,6.62,6,11.4a5.43,5.43,0,0,0,1.68,1.9c.69.33,1.73.83,3.1,1.51A4.23,4.23,0,0,1,222.06,407.82Z" transform="translate(-25.88 -286.71)"/><path class="cls-2" d="M245.54,372.82a18.86,18.86,0,0,1-.3,5.11,7.83,7.83,0,0,1-1.59,3.28,11.74,11.74,0,0,1-2.83,2.85,9.25,9.25,0,0,1-3.63,1.26,14.32,14.32,0,0,1-1.7.55c-1.45.13-3.28.19-5.5.19-.13,0-.28.11-.47.33.08.7.16,2.91.25,6.65a18.3,18.3,0,0,0,.44,2.86,5.88,5.88,0,0,0,.27,1.45,3.08,3.08,0,0,0,1.85,1.41l2,.6a3,3,0,0,1,0,.72,4.38,4.38,0,0,1-1.62.33h-2.83l-.73-.14a5.77,5.77,0,0,0-1-.14c-.55,0-1.42.05-2.6.14l-1.74.14h-2.73a2.42,2.42,0,0,1-1-.28,2.46,2.46,0,0,0-.07-.3,1.43,1.43,0,0,1-.07-.36,11.77,11.77,0,0,0,1.73-.55,3.65,3.65,0,0,0,1.62-1.57,7.41,7.41,0,0,0,.36-2.5c0-.22.08-.78.19-1.7a15.24,15.24,0,0,0,.16-1.9v-3.4c0-.84,0-1.69-.08-2.53a4.78,4.78,0,0,1,.66-2.45,2.29,2.29,0,0,1-.49-.71,20.58,20.58,0,0,1-.22-3.08s.07-.33.22-.93a2,2,0,0,0,0-1.18,5.77,5.77,0,0,1-.11-3,13.85,13.85,0,0,0-.35-3.27,7.89,7.89,0,0,0-.47-2.31,2.61,2.61,0,0,0-1.54-.93l-1.59-.33c0-1.05,0-1.27-.08-.66,0-.3.21-.45.55-.47.73,0,1.9-.12,3.51-.25l2.31-.19h3.46a11.66,11.66,0,0,0,2-.18,10.46,10.46,0,0,1,1.75-.18,20.85,20.85,0,0,1,2.31.17l2.52.55a3.11,3.11,0,0,0,.53.24,7.77,7.77,0,0,1,4.58,2.48A8.12,8.12,0,0,1,245.54,372.82Zm-5.82,3.07a5,5,0,0,0-.09-1.18,17.12,17.12,0,0,0-2.3-4.64,5.56,5.56,0,0,0-2.89-1.76,14.09,14.09,0,0,0-3.41-.14,1.62,1.62,0,0,0-.74.31q-.43,4.63-.55,7.52a2.36,2.36,0,0,1,.25.64c0,.25-.08,1.3-.25,3.13a17.15,17.15,0,0,0,.11,3.57l.22.22h2.67a3.22,3.22,0,0,0,1,.14,5.24,5.24,0,0,0,3.05-1,6.12,6.12,0,0,0,1.81-1.67A11.09,11.09,0,0,0,239.72,375.89Z" transform="translate(-25.88 -286.71)"/><path class="cls-2" d="M275.71,391.28c0,1-.17,2.3-.35,4-.22.48-.5,1.15-.83,2-.07.36-.21.88-.41,1.54a4.18,4.18,0,0,1-.71,1c-.48.59-.87.88-1.16.88h-7l-2.47-.08-2.47-.08h-4.23c-.11,0-.68-.05-1.69-.15s-1.59-.16-1.72-.16h-4.15l-.36-.38a12.58,12.58,0,0,1,2.39-1.65,2.59,2.59,0,0,0,1.43-2.2v-8.68a33.09,33.09,0,0,1,.66-5.69,6.36,6.36,0,0,1-.14-2.75,1.42,1.42,0,0,1-.49-1.15s.18-.79.55-2.25a1.66,1.66,0,0,0-.27-.77q-.39-.69-.42-.72a5.71,5.71,0,0,1-.16-1.81v-1.87a4.2,4.2,0,0,0-.39-1.51A2.89,2.89,0,0,0,250,367.6l-1.65-.75c.25-.6.53-.92.82-1a16.07,16.07,0,0,0,2.45.06l1.7-.41h4.87c.07,0,.62.06,1.66.19s1.82.2,2.35.22q.33,0,5.49-.36c.79,0,2.85,0,6.19.17a.87.87,0,0,1,.43.74,2.12,2.12,0,0,1-.17.71,2.17,2.17,0,0,0-.18.69q0,.9-.58,6a2.17,2.17,0,0,1-.8.52,28.72,28.72,0,0,1-1-2.94,2.4,2.4,0,0,0-2-1.9l-1.23-.27a2.63,2.63,0,0,0-1.32-.05,19.55,19.55,0,0,1-5.25.08,12.74,12.74,0,0,0-3.35.08c-.22,0-.37.27-.44.63a8.81,8.81,0,0,1,.08,5.69c0-.11.06.35.06,1.37,0,.26-.05.79-.14,1.6a6.41,6.41,0,0,0-.06,1.59,1.45,1.45,0,0,0,.53.72h10.35l1-.33a1.85,1.85,0,0,0,1.07-.86,14.89,14.89,0,0,1,1-2,1.08,1.08,0,0,1,1.13.6c-.07,1-.15,2.38-.22,4,0,1.08-.15,2.67-.38,4.76-.08.31-.44.41-1.1.3a10.86,10.86,0,0,0-1.27-1.73,5.18,5.18,0,0,0-3.05-1.27H263.1a13.14,13.14,0,0,1-1.4-.13,11.75,11.75,0,0,0-1.57-.14c-1,0-1.58.28-1.84.85a4,4,0,0,0-.44,1.48,16.49,16.49,0,0,0,.2,1.87,13.65,13.65,0,0,1,.16,2.12A14,14,0,0,1,258,392a7.92,7.92,0,0,0-.23,1.66,2.82,2.82,0,0,0,.11.85,3.64,3.64,0,0,0,1.49,1.6,5.51,5.51,0,0,0,2.24,1.07l.28.11a1.91,1.91,0,0,0,.49.08h4.56a6,6,0,0,0,2.59-.49,8.68,8.68,0,0,0,2.83-2.2,5.77,5.77,0,0,0,1.62-3.24A2.1,2.1,0,0,1,275.71,391.28Z" transform="translate(-25.88 -286.71)"/><path class="cls-2" d="M311.82,399.47a5.1,5.1,0,0,1-.71.74,4.45,4.45,0,0,1-1.79.69H306a16.7,16.7,0,0,1-2.5-.14l-1.84-.63c-.7-.22-1.91-1.32-3.65-3.3-.15-.16-.86-1.34-2.15-3.54-1.15-2-2.06-3.67-2.72-5a13.31,13.31,0,0,0-.88-2c-.18-.2-.64-.27-1.37-.22l-1.4.17c-.61,0-1.5-.05-2.69,0-.13,0-.29.11-.47.33.07.71.16,3,.27,6.73a15.79,15.79,0,0,0,.44,2.89,5.54,5.54,0,0,0,.28,1.45,3.23,3.23,0,0,0,1.87,1.43l2.08.61a2.6,2.6,0,0,1-.05.71,4.19,4.19,0,0,1-1.62.33h-2.89l-.74-.14a5.77,5.77,0,0,0-1-.13c-.57,0-2.05.09-4.45.27h-2.77a2.48,2.48,0,0,1-1-.25,2.46,2.46,0,0,0-.07-.33,1.3,1.3,0,0,1-.07-.35,13.83,13.83,0,0,0,1.76-.55,3.78,3.78,0,0,0,1.65-1.6,7.67,7.67,0,0,0,.38-2.53c0-.22.06-.78.19-1.7a16.26,16.26,0,0,0,.17-1.92c0-2.49,0-3.84.07-4a3.68,3.68,0,0,1,.5-1,4.19,4.19,0,0,1-.49-.74,5.58,5.58,0,0,1-.14-1.4V381.5s0-.3-.08-.85c0,.22.1-1,.25-3.63a1.67,1.67,0,0,0-.14-.19,6.42,6.42,0,0,1,0-2.83,15.28,15.28,0,0,0-.36-3.3,8.94,8.94,0,0,0-.49-2.31,2.68,2.68,0,0,0-1.57-.93l-1.62-.36c0-1,0-1.26-.08-.66a.5.5,0,0,1,.55-.46c.75,0,1.95-.12,3.59-.25l2.34-.22h3.55a13.13,13.13,0,0,0,2-.17,11.54,11.54,0,0,1,1.78-.16,20.36,20.36,0,0,1,2.34.16l2.58.55a2.43,2.43,0,0,0,.55.25,8.14,8.14,0,0,1,4.67,2.5,10.43,10.43,0,0,1,2,4.18c0,.29.05.72.08,1.29a11,11,0,0,1-.11,2.06,10.05,10.05,0,0,1-1.37,4.4,26.24,26.24,0,0,1-3.6,3.84,1.79,1.79,0,0,0,.22,1l3.46,6.65a23.38,23.38,0,0,0,5,6.13,8.55,8.55,0,0,0,2,.71,4.35,4.35,0,0,0,1.81.14,5.91,5.91,0,0,1,1.56-.17A2.09,2.09,0,0,1,311.82,399.47ZM296.76,376a3.24,3.24,0,0,0-.14-1.21,15.81,15.81,0,0,0-2.33-4.67,5.79,5.79,0,0,0-2.94-1.81,14.09,14.09,0,0,0-3.46-.14,2.52,2.52,0,0,0-.77.3q-.45,4.72-.55,7.64a3.27,3.27,0,0,1,.27.63c0,.26-.08,1.3-.24,3.13a15.75,15.75,0,0,0,.08,3.63l.22.25h2.72a4.48,4.48,0,0,0,1,.11,5.49,5.49,0,0,0,3.12-1,5.81,5.81,0,0,0,1.82-1.69A10.66,10.66,0,0,0,296.76,376Z" transform="translate(-25.88 -286.71)"/><path class="cls-2" d="M322.59,368.67c-.07.27-.19.66-.36,1.15l-1.64.36a1.7,1.7,0,0,0-1.32.93c-.15.22-.33.54-.55.94,0,.13-.28,1.19-.72,3.19l-.11,11.54a7.42,7.42,0,0,0-.19.77l.19.57-.05,4.26a7.42,7.42,0,0,0,0,2.42,8.09,8.09,0,0,0,.77,2.91,2.43,2.43,0,0,0,1,.85,5.43,5.43,0,0,0,2.86.8,3.86,3.86,0,0,1-.31,1.05h-3.18l-.95-.06-.92-.06-.74.06-.72.06-.51-.06-.53-.06-.37.06-.37.06-5.75.13c-.49,0-.74-.18-.74-.55s.13-.67.39-.74c.58-.11,1.17-.21,1.75-.3a1.9,1.9,0,0,0,1.32-.74q.12-.33.33-1c.26,0,.65.07,1.18.16a7.79,7.79,0,0,0,.28-1.45,1.9,1.9,0,0,0-.28-.83,1.3,1.3,0,0,0,.09-.93,9.23,9.23,0,0,0-.52-.93,3.28,3.28,0,0,1-.36-.66,9.71,9.71,0,0,0,.46-1.65.91.91,0,0,0-.16-.63,2.85,2.85,0,0,0,.47-1s-.05-.63-.14-1.78a1.46,1.46,0,0,0-.19-.53,1.87,1.87,0,0,1-.2-.46.87.87,0,0,1,.22-.39c0,.07-.05,0-.05-.3v-3.33a3,3,0,0,1,.12-.49,2.47,2.47,0,0,0,.13-.49.52.52,0,0,0-.09-.21A.62.62,0,0,1,312,381c0,.07,0-.34.08-1.24,0-.18,0-.7-.11-1.54v-2.17a1.78,1.78,0,0,0-.38-.88,2,2,0,0,0-.17-1.13,6.43,6.43,0,0,0-.22-1.15c-.14-.17-.32-.4-.54-.71s-.21-.46-.39-.83a3.08,3.08,0,0,0-1-1.1c-.42-.11-1.06-.31-1.9-.6a9.8,9.8,0,0,1,.3-1h.25l.51.05.51.06Z" transform="translate(-25.88 -286.71)"/><path class="cls-2" d="M351.36,391.28c-.05,1-.17,2.3-.36,4-.22.48-.49,1.15-.82,2-.07.36-.21.88-.41,1.54a4.32,4.32,0,0,1-.72,1c-.47.59-.86.88-1.15.88h-7l-2.47-.08L336,400.6h-4.24l-1.69-.15c-1-.1-1.59-.16-1.71-.16h-4.15l-.36-.38a12.58,12.58,0,0,1,2.39-1.65,2.61,2.61,0,0,0,1.43-2.2v-8.68a33.09,33.09,0,0,1,.66-5.69,6.36,6.36,0,0,1-.14-2.75,1.39,1.39,0,0,1-.49-1.15s.18-.79.55-2.25a1.87,1.87,0,0,0-.28-.77c-.25-.46-.39-.7-.41-.72a6,6,0,0,1-.17-1.81v-1.87a4,4,0,0,0-.38-1.51,2.87,2.87,0,0,0-1.35-1.26l-1.65-.75c.26-.6.54-.92.83-1a16,16,0,0,0,2.45.06l1.7-.41h4.86c.08,0,.63.06,1.66.19s1.82.2,2.35.22c.22,0,2.06-.12,5.5-.36.79,0,2.85,0,6.18.17a.86.86,0,0,1,.44.74,2.19,2.19,0,0,1-.18.71,2.09,2.09,0,0,0-.17.69c0,.6-.22,2.6-.58,6a2.28,2.28,0,0,1-.8.52,30.18,30.18,0,0,1-1-2.94,2.38,2.38,0,0,0-2-1.9l-1.24-.27a2.59,2.59,0,0,0-1.31-.05,19.55,19.55,0,0,1-5.25.08,12.72,12.72,0,0,0-3.35.08c-.23,0-.37.27-.45.63a8.82,8.82,0,0,1,.09,5.69,5.48,5.48,0,0,1,.05,1.37,15.53,15.53,0,0,1-.14,1.6,6.33,6.33,0,0,0-.05,1.59,1.41,1.41,0,0,0,.52.72h10.36l1-.33a1.88,1.88,0,0,0,1.08-.86,14.89,14.89,0,0,1,1-2,1.09,1.09,0,0,1,1.13.6c-.08,1-.15,2.38-.22,4,0,1.08-.15,2.67-.39,4.76-.07.31-.44.41-1.1.3a10.08,10.08,0,0,0-1.26-1.73,5.21,5.21,0,0,0-3-1.27h-3.79a12.92,12.92,0,0,1-1.4-.13,11.75,11.75,0,0,0-1.57-.14c-1,0-1.58.28-1.84.85a4,4,0,0,0-.44,1.48,15.75,15.75,0,0,0,.19,1.87,12.73,12.73,0,0,1,.17,2.12,14,14,0,0,1-.26,1.44,8.07,8.07,0,0,0-.24,1.66,3.18,3.18,0,0,0,.11.85,3.75,3.75,0,0,0,1.5,1.6,5.51,5.51,0,0,0,2.24,1.07l.27.11a2,2,0,0,0,.5.08h4.56a6,6,0,0,0,2.58-.49,8.58,8.58,0,0,0,2.83-2.2,5.73,5.73,0,0,0,1.63-3.24A2.1,2.1,0,0,1,351.36,391.28Z" transform="translate(-25.88 -286.71)"/><path class="cls-2" d="M390.16,366.8c-.35.05-.85.15-1.51.27a2.82,2.82,0,0,0-1.65,1.32,8.08,8.08,0,0,0-1,3,30.55,30.55,0,0,0-.36,4.12c0,.08,0,.87.11,2.38s.11,2.31.11,2.4v4.37a4.85,4.85,0,0,0,.09.55,2.26,2.26,0,0,1,.07.72c-.11,2.21-.16,3.46-.16,3.73a6,6,0,0,0,.11.9c.07.45.11.71.11.78v8.44c0,.11,0,.17,0,.17a.05.05,0,0,1,0,.05,16.22,16.22,0,0,0-1.73.32,2.57,2.57,0,0,1-1.43-.24,78.82,78.82,0,0,1-5.61-6.16c-.43-.58-1.09-1.43-2-2.53q-1.15-1.12-3.14-3.29c-.33-.55-.88-1.37-1.64-2.45q-2.48-3-7-8.82a21.26,21.26,0,0,1-1.65-1.48,2.45,2.45,0,0,0-.17-.55c-.22-.35-.58-.87-1.09-1.57a.9.9,0,0,0-.58.85s.13.92.38,2.81a1.4,1.4,0,0,1-.05.5,2.13,2.13,0,0,0-.08.46q0,1.1.09,3.39c.07,1.53.1,2.28.1,2.24v3.85c0,.11,0,1,0,2.8s0,2.68,0,2.78c0,3.83,1.37,5.84,4.09,6,.06,0,.13.08.21.23a1,1,0,0,0,.18.29,1.63,1.63,0,0,1-.14.83h-9.59c-.07,0-.41.05-1,.15s-.94.15-1,.15h-.44a.91.91,0,0,1-.25-.3,1.32,1.32,0,0,1,.61-1.29,20.73,20.73,0,0,0,2.08-.83,3.15,3.15,0,0,0,1.63-2.36q.7-4,.3-4.86a.72.72,0,0,1-.06-.66l.22-.28-.16-.25a6.83,6.83,0,0,1,0-1.05c0-.51.05-.87.05-1.09a9.6,9.6,0,0,0-.15-1.32,9.6,9.6,0,0,1-.15-1.32,11,11,0,0,0,.11-1.7c0-.06-.1-.24-.25-.55l.14-.14a1.37,1.37,0,0,0,.14-.6.23.23,0,0,0,0-.2,41.3,41.3,0,0,1-.39-4.17v-3.79c-.13-2.16-.19-3.48-.19-4a1.31,1.31,0,0,1,.1-.36,1,1,0,0,0,.06-.47,6.27,6.27,0,0,0-5.24-2l-.14-.14V366c.2-.24.69-.35,1.48-.35.09,0,.83,0,2.21.11l2.22.11,2-.11c1.29-.08,2-.11,2.08-.11a2.78,2.78,0,0,1,.77.05,6.7,6.7,0,0,1,1.59,1.79q2.28,3.21,6.87,9.56c.62.79,1.56,2,2.8,3.52-.22,1.61,0,2.41.69,2.41a1.3,1.3,0,0,0,.44-.16,1.34,1.34,0,0,1,.47-.17c.23,0,.56.34,1,1l.58,1a11.55,11.55,0,0,1,2.5,2.47c.07.31.2.77.38,1.37.15.21.27.31.36.31a.45.45,0,0,0,.27-.11.41.41,0,0,1,.17-.11c.49.53,1.16,1.31,2,2.33.32-.14.47-.28.47-.41a1.92,1.92,0,0,0-.11-.47,1.88,1.88,0,0,1-.11-.46v-2.94a2.31,2.31,0,0,0,0-.4,4.27,4.27,0,0,1,0-.68,10,10,0,0,0,.16-1.48c-.09-.53-.21-1.31-.35-2.34a2.27,2.27,0,0,1,.05-.82c.07-.4.11-.63.11-.69a3,3,0,0,0-.08-.45,2.08,2.08,0,0,1-.08-.48,7.47,7.47,0,0,1,0-1.35c0-.71.05-1.19.05-1.43a1.61,1.61,0,0,0-.12-.46,2,2,0,0,1-.15-.5l.11-.74a4,4,0,0,0-.1-.85,5.58,5.58,0,0,1-.12-1,2,2,0,0,1,.11-.5,1.45,1.45,0,0,0,.08-.55c-.11-.75-.3-1.85-.58-3.29-.26-1-1.3-1.59-3.13-1.9a2.31,2.31,0,0,0-.11-1,4.26,4.26,0,0,1,1.95-.25l5,.2c-.11,0,.72-.06,2.47-.17a6.55,6.55,0,0,1,2.45.19Zm-10.19,21-.25.3-.17-.16.14-.58C380,387.65,380.09,387.79,380,387.79Z" transform="translate(-25.88 -286.71)"/><path class="cls-2" d="M419,366.36c0,.55-.15,1.57-.35,3.05a20.25,20.25,0,0,0-.25,2.75,8.39,8.39,0,0,0,.16,1.7,1,1,0,0,0-.35.74,2.76,2.76,0,0,0,.11.65,1.62,1.62,0,0,1,.05.7,1.21,1.21,0,0,1-.79.47,1,1,0,0,1-.91-.17,7,7,0,0,0,.22-1.67s-.07-.22-.19-.61a4.58,4.58,0,0,0-.17-1c-.57-.88-.86-1.34-.88-1.38a5.28,5.28,0,0,0-1.23-1.26,10.42,10.42,0,0,0-3.74-1.59c-.84-.21-1.18-.31-1-.31h-4.45c-.7.15-1.73.41-3.1.77a10.69,10.69,0,0,0-4.43,2.86,13.41,13.41,0,0,0-1.29,2.25,11.18,11.18,0,0,0-1.4,4.59,2,2,0,0,0,0,.47c0-.15-.08.06-.13.63a19,19,0,0,0-.11,2.58,1.67,1.67,0,0,1,.09.22.88.88,0,0,1,.07.31,19.58,19.58,0,0,0,.3,3.21,16.33,16.33,0,0,0,.17,1.87,9.16,9.16,0,0,1,.55.91c.05.25.14.6.27,1a20.65,20.65,0,0,1,1.29,1.76,6.82,6.82,0,0,0,1.68,2.44c.59.37,1.42.94,2.5,1.71a8.72,8.72,0,0,0,.49,1,2.35,2.35,0,0,0,.71-.08,3.13,3.13,0,0,1,.72-.11A9.09,9.09,0,0,1,405,397a13.2,13.2,0,0,0,1.67.26A18.9,18.9,0,0,0,411,397c.4-.07,1-.16,1.87-.27,1.55-.26,2.91-1.52,4.06-3.8a10.37,10.37,0,0,0,.17-1.12c.07-.22.15-.53.25-.94s.06-1.15.13-2.09a1.25,1.25,0,0,1,.36-.08c.53,0,.82.62.85,1.87a35.78,35.78,0,0,1-.25,5.61,8.71,8.71,0,0,1-.49,2.3,3.71,3.71,0,0,1-1.65.69,29.74,29.74,0,0,1-3.17.69l-3.07.38a19.49,19.49,0,0,1-8-.46,6,6,0,0,1-.74-.06c-.24-.13-.58-.28-1-.47a15.24,15.24,0,0,1-6-3.43,13.49,13.49,0,0,1-4.12-5.74l-.66-1.46c0-.15,0-.36-.05-.63a8.86,8.86,0,0,1-.58-1.24q-.14-.69-.3-2c0-.51,0-1.73.11-3.65,0-.44.39-2.27,1.12-5.5.28-.46.67-1.11,1.18-2,.43-.71.75-1.21,1-1.51a2.76,2.76,0,0,1,1.1-1.1,1,1,0,0,0,.79-.13q1.21-1.25,3.63-3.58a1.94,1.94,0,0,0,.55.06,4.51,4.51,0,0,1,.93-.66,6.92,6.92,0,0,0,.94.14c1-.3,2.49-.65,4.45-1.07a19.07,19.07,0,0,1,2.72-.17h3.52l4.36.39A22.61,22.61,0,0,1,419,366.36Z" transform="translate(-25.88 -286.71)"/><path class="cls-2" d="M450.64,391.28c-.06,1-.18,2.3-.36,4-.22.48-.49,1.15-.82,2-.08.36-.21.88-.41,1.54a4.66,4.66,0,0,1-.72,1c-.48.59-.86.88-1.15.88h-7l-2.47-.08-2.48-.08H431l-1.69-.15c-1-.1-1.59-.16-1.72-.16h-4.14l-.36-.38a12.58,12.58,0,0,1,2.39-1.65,2.61,2.61,0,0,0,1.43-2.2v-8.68a33.09,33.09,0,0,1,.66-5.69,6.21,6.21,0,0,1-.14-2.75,1.4,1.4,0,0,1-.5-1.15s.19-.79.55-2.25a1.66,1.66,0,0,0-.27-.77c-.26-.46-.39-.7-.41-.72a5.64,5.64,0,0,1-.17-1.81v-1.87a4,4,0,0,0-.38-1.51,3,3,0,0,0-1.35-1.26l-1.65-.75c.26-.6.53-.92.83-1a15.89,15.89,0,0,0,2.44.06l1.71-.41h4.86c.07,0,.63.06,1.66.19s1.82.2,2.35.22c.22,0,2.05-.12,5.5-.36.79,0,2.85,0,6.18.17a.88.88,0,0,1,.44.74,2.19,2.19,0,0,1-.18.71,2.17,2.17,0,0,0-.18.69q0,.9-.57,6a2.4,2.4,0,0,1-.8.52,30.18,30.18,0,0,1-1-2.94,2.39,2.39,0,0,0-2-1.9l-1.24-.27a2.63,2.63,0,0,0-1.32-.05,19.44,19.44,0,0,1-5.24.08,12.8,12.8,0,0,0-3.36.08c-.22,0-.36.27-.44.63a8.82,8.82,0,0,1,.09,5.69,5.48,5.48,0,0,1,.05,1.37c0,.26-.05.79-.14,1.6a5.89,5.89,0,0,0-.05,1.59,1.41,1.41,0,0,0,.52.72h10.36l1-.33a1.85,1.85,0,0,0,1.07-.86,15.22,15.22,0,0,1,1-2,1.09,1.09,0,0,1,1.13.6c-.08,1-.15,2.38-.22,4,0,1.08-.15,2.67-.39,4.76-.07.31-.44.41-1.1.3a11.33,11.33,0,0,0-1.26-1.73,5.23,5.23,0,0,0-3.05-1.27H438a12.92,12.92,0,0,1-1.4-.13,11.75,11.75,0,0,0-1.57-.14c-1,0-1.59.28-1.84.85a3.84,3.84,0,0,0-.44,1.48,15.75,15.75,0,0,0,.19,1.87,12.5,12.5,0,0,1,.16,2.12,10,10,0,0,1-.26,1.44,8.66,8.66,0,0,0-.23,1.66,3.18,3.18,0,0,0,.11.85,3.75,3.75,0,0,0,1.5,1.6,5.45,5.45,0,0,0,2.24,1.07l.27.11a2,2,0,0,0,.5.08h4.56a6,6,0,0,0,2.58-.49,8.68,8.68,0,0,0,2.83-2.2,5.64,5.64,0,0,0,1.62-3.24A2.12,2.12,0,0,1,450.64,391.28Z" transform="translate(-25.88 -286.71)"/><path class="cls-2" d="M282.93,433.51a2.38,2.38,0,0,1,.05.49,15.34,15.34,0,0,1-.26,2.12,14.91,14.91,0,0,0-.26,2.25c0,.26,0,.49,0,.71a9.76,9.76,0,0,0-.25,1.38c.15.73.23,1,.25.85a4.56,4.56,0,0,1-.25.41c0,.18.05.71.16,1.57a1.9,1.9,0,0,1-1.23.66c-.15,0-.31-.11-.5-.33a8.2,8.2,0,0,0,.17-2q-.09-.44-.33-1.23a9.6,9.6,0,0,0-2-2.67,10.82,10.82,0,0,0-2.7-1.46,13.42,13.42,0,0,0-1.78-.38,19,19,0,0,0-2.92-.17c-3.62,0-6.47,1-8.54,2.89a5.33,5.33,0,0,0-1.1.85,13.42,13.42,0,0,0-2.72,6.46c-.09.88-.14,2.32-.14,4.34v1.81a8.67,8.67,0,0,1,.39,1.46,17.29,17.29,0,0,0,.27,2.31,3.65,3.65,0,0,1,.55.82,5.16,5.16,0,0,0,.19.94c.26.34.65.87,1.18,1.56.08.22.21.53.39.94a9.73,9.73,0,0,0,3.82,3.73,9.1,9.1,0,0,0,2.28.94,41.78,41.78,0,0,0,7,1.26,6,6,0,0,0,1.4-.16,5,5,0,0,0,1-.33l.14-1.07a.53.53,0,0,0-.36-.53,1.13,1.13,0,0,1-.66-.44,2.62,2.62,0,0,1,0-1.7v-4.37a12.41,12.41,0,0,0-.47-2.5,2.65,2.65,0,0,1-.44-.52,2.69,2.69,0,0,0-2-1.87,15.29,15.29,0,0,0-2.69-.22l-.25-.19v-.72a8.47,8.47,0,0,1,2.26-.22l1.92.15,1.92.16a1.69,1.69,0,0,0,.47-.13,3.41,3.41,0,0,1,.5-.15l1.86-.14q3.89,0,3.3,0v1.18a2.33,2.33,0,0,1-.25.58,3.78,3.78,0,0,0-.35.8,19.12,19.12,0,0,0-.55,3.84c-.08,1.65-.11,2.79-.11,3.41a45.89,45.89,0,0,0,.41,5.22,34,34,0,0,1-6.62,1.76,8.94,8.94,0,0,0-1.35.06,9.53,9.53,0,0,1-1.73.27,1.78,1.78,0,0,1-.41-.08,1.37,1.37,0,0,0-.39-.08,40.49,40.49,0,0,1-4.7-.47c-.47-.18-1.18-.41-2.11-.69a13.89,13.89,0,0,1-6.13-3.52c-2.33-2.07-3.75-4.05-4.29-6q-.24-.63-.63-1.89c-.14-.28-.34-.69-.57-1.24a9.89,9.89,0,0,1-.33-2.28c0,.05,0-.29.13-1a3.47,3.47,0,0,0,0-1.32,4,4,0,0,1-.11-.93,11.31,11.31,0,0,1,.47-2.67q.54-2.15.66-2.88c1.79-3.24,2.88-4.87,3.27-4.87a.18.18,0,0,1,.16.1.21.21,0,0,0,.19.1,1.22,1.22,0,0,0,.75-.22,5.1,5.1,0,0,1,.44-.91c1.7-1.89,2.73-2.83,3.1-2.83a.29.29,0,0,1,.19.05.22.22,0,0,0,.17.06,1.78,1.78,0,0,0,.59-.37,1.61,1.61,0,0,1,.62-.37.64.64,0,0,1,.31.11.85.85,0,0,0,.32.11c.09,0,.91-.2,2.44-.58s2.36-.58,2.45-.58h7.06l2.53.26c1.59.18,2.44.27,2.53.27h2.31Z" transform="translate(-25.88 -286.71)"/><path class="cls-2" d="M315.76,467.77a3.07,3.07,0,0,1-1.45.14c-1.07-.09-1.56-.14-1.49-.14h-2.2a36.7,36.7,0,0,0-6.21.41c-.82.15-1.37.07-1.64-.24a4.78,4.78,0,0,1,.08-1.41,7.28,7.28,0,0,0,1.54-.38,1.62,1.62,0,0,0,.63-.83,1.23,1.23,0,0,0,.08-.9c-.24-1.06-.6-2.66-1.1-4.78,0-.13-.24-.65-.6-1.57a4.82,4.82,0,0,1-.44-1.68c0-.11-.14-.16-.36-.16s-1.81.07-4.51.22l-5.79.08c-.43,0-.82.37-1.19,1.16-.18.4-.43,1-.76,1.78a9.94,9.94,0,0,0-.61,2.28,14.49,14.49,0,0,0-.27,1.65,3.81,3.81,0,0,0,0,1.76,3.1,3.1,0,0,0,.83.88,4.94,4.94,0,0,0,1.25.8l.44.13.36.61q-.57.17-1.59.36c-1.07-.1-2.59-.17-4.59-.22a16.35,16.35,0,0,1-1.95.38l-2-.25a.79.79,0,0,1,0-.24c0-.22.27-.54.82-.94a8.33,8.33,0,0,1,1-1.07,3.33,3.33,0,0,0,1.1-1.42c.31-.66.78-1.7,1.43-3.11l1.23-4c.37-.84.84-2.12,1.4-3.85q.64-1.89,1.84-5.63a2.13,2.13,0,0,0,.28-.33c.05.29.13.44.22.44s.29-.39.49-1.18a6.8,6.8,0,0,0,.28-1.54c0-.05,0-.08,0-.08a2.52,2.52,0,0,0-.19.49c0-.18,0-.44.05-.77.3-.77.71-1.9,1.24-3.4a14.51,14.51,0,0,1,1.18-3.19c.09-.31.23-.79.41-1.43a26,26,0,0,1,1-2.47,4.72,4.72,0,0,1,.41-1c.11-.13.54-.16,1.29-.11s1.79.08,3.24.19q.72,2.07,2.56,6.57a8.27,8.27,0,0,0,1.45,3.93c-.09.13,0,.6.22,1.43.3.66.73,1.63,1.3,2.91.38,1.27,1,3,1.78,5.28a13.81,13.81,0,0,0,.52,2.2,2.87,2.87,0,0,0,.14.68c.22.48.61,1.39,1.18,2.75.2.29.48.74.83,1.35a2,2,0,0,0,.05.6c.26.75.65,1.81,1.18,3.16.19.31.5.88.94,1.7.11.22.63.51,1.56.86l1.21.41Zm-14.12-14.4s-.69-1.84-2-5.47c-.22-.73-.56-1.82-1-3.27-.22-.44-.52-1.07-.88-1.89-.11-.39-.31-.94-.58-1.65q-1,2.25-2.2,4.56a2.59,2.59,0,0,0-.38.52c-.06.28-.16.7-.3,1.27a10.53,10.53,0,0,0-.47,1.1c0,.31-.07.71-.14,1.2a7.45,7.45,0,0,0-.44.77c-.09.43-.23,1-.41,1.79l-.36.6c0-.2.06,0,.06.47Z" transform="translate(-25.88 -286.71)"/><path class="cls-2" d="M359.37,466.62a.76.76,0,0,1,.11.38c0,.62-.38.94-1.13.94a1.19,1.19,0,0,1-.44-.09,4.14,4.14,0,0,0-1.51-.35,10,10,0,0,0-1.56,0l-1.54,0a39.85,39.85,0,0,0-4.52,0c-.43.09-1.12.17-2,.27s-1.34-.1-1.54-.5a.7.7,0,0,1,.08-.54.64.64,0,0,1,.44-.39c.06,0,.76-.09,2.12-.22q1.56-.17,1.92-2.64c0-1.1.09-2.76.17-5a3.13,3.13,0,0,0-.1-.64,3.54,3.54,0,0,1-.09-.63,58.71,58.71,0,0,0-.36-6.4v-2.17s-.08-.37-.24-1a10.51,10.51,0,0,1-.26-1.36,19.21,19.21,0,0,1-.08-2.53s0-.2.15-.55a3.3,3.3,0,0,0,.15-.88,1.1,1.1,0,0,0-.35-.88,3,3,0,0,0-1,1.73,11.39,11.39,0,0,0-.61,1.1c-.07.35-.21.85-.41,1.51-.09.13-.24.36-.44.69a8.19,8.19,0,0,1-.22.82c-.33.68-.81,1.67-1.46,3,0,.26-.11.64-.22,1.15-.16.22-.34.51-.55.86a4.81,4.81,0,0,1-.3,1.09c-.33.57-.79,1.44-1.37,2.61a13,13,0,0,1-.39,1.6c-.09.11-.22.27-.38.49l-.39,1.18c-.14.24-.32.58-.52,1a11.31,11.31,0,0,1-.33,1.18,5.76,5.76,0,0,0-.52.91s-.56,1.32-1.68,3.9a3.34,3.34,0,0,1-.57,1.43l-1.24.14a1.3,1.3,0,0,1-1.15-.35,10,10,0,0,1-1.29-2.4c-.3-.57-.7-1.41-1.21-2.53-.19-.58-.46-1.37-.83-2.36q-.07-.19-3-5.8c-.06-.24-.16-.58-.31-1q-1.35-2.58-3.9-8.16a29.39,29.39,0,0,0-1-3.21c-.47-1-1-1.46-1.51-1.46-.15.13-.22.62-.22,1.46a7,7,0,0,1,.22,1,6.17,6.17,0,0,1,0,1c0,.54,0,.78,0,.75v2.63l-.69,10.36v2.28c0-.16,0,0,0,.58s0,1.45,0,2.69a5.79,5.79,0,0,0,.27,1.32,4.44,4.44,0,0,0,1.32,1.51,12.87,12.87,0,0,1,1.68.55.59.59,0,0,1,.24.77c-.36.42-1.41.53-3.13.31h-2.5a8.32,8.32,0,0,0-1.13.05,32.26,32.26,0,0,1-3.71.17.92.92,0,0,1-.33-.58.53.53,0,0,1,.25-.63,5.57,5.57,0,0,1,1.27-.22l.65-.39a3.45,3.45,0,0,0,1.79-2.44c.07-.3.18-1.25.33-2.86q.13-.36.36-1a8.41,8.41,0,0,0,.19-1.34v-2.09a1,1,0,0,1,.07-.33,2.08,2.08,0,0,0,.07-.28,33.16,33.16,0,0,1,.44-4.89c0-.15.08-.76.13-1.84.08-1.87.1-3.13.06-3.79a3.43,3.43,0,0,1,.08-.48,2.47,2.47,0,0,0,.08-.46v-3.84a4.21,4.21,0,0,1,.29-.81,9.14,9.14,0,0,0,.37-1,2.91,2.91,0,0,0,0-1.18l-.63-1.24a2.91,2.91,0,0,0-.69-1.45l-1-.17q-.69-.11-1.83-.33c-.76-.14-1.16-.23-1.22-.25-.51-.14-.78-.38-.8-.71a2.87,2.87,0,0,1,2.23-.38l3.13.44a3.78,3.78,0,0,0,.8-.06,6.13,6.13,0,0,1,1-.14c.09,0,1.14,0,3.13.17.55,0,1,.57,1.32,1.67q.22.36.72,1.35c.09.35.24.85.46,1.51a8.55,8.55,0,0,1,1.13,1.35c0,.35.06.85.14,1.51a8.67,8.67,0,0,1,.52.85q2.21,5,4.15,9.76c.31.77.64,1.67,1,2.7a22.87,22.87,0,0,0,1.5,3.45,12.22,12.22,0,0,1,1.05,1.35,5.54,5.54,0,0,1,.24,1.12c.1.43.3.66.61.72a.75.75,0,0,0,.52-.41,35.86,35.86,0,0,0,1.95-4.84,37.76,37.76,0,0,1,2.14-5.19c.08-.28.21-.7.39-1.27.15-.33.37-.83.69-1.51a1.29,1.29,0,0,1,.28-.4,1.74,1.74,0,0,0,.32-.42,13.34,13.34,0,0,1,.38-1.62l.77-1.76,1.38-1.95a7.09,7.09,0,0,0,.3-1.32c0-.09.57-1.45,1.65-4.07a8.63,8.63,0,0,1,.3-1.51c.5-1.12,1.6-1.53,3.3-1.24a5.33,5.33,0,0,0,.93.36,9.6,9.6,0,0,0,2.92,0,13,13,0,0,0,1.53-.11c.15-.09.4-.21.75-.37a1.54,1.54,0,0,1,1.12,0,.47.47,0,0,1,.33.44c.06.57-.23.92-.85,1l-1.59.22c-.15.11-.4.29-.76.53a10.88,10.88,0,0,0-1.47,1.26s-.17.71-.47,2a14.62,14.62,0,0,0,.09,4.78c.13,1,.21,1.89.24,2.72s0,2.22.09,4c0-.06,0,.95-.11,3a16.41,16.41,0,0,0,.24,3.43,28.88,28.88,0,0,1,.64,3.3c.11,1.94.2,3.08.27,3.41a4.36,4.36,0,0,0,1.51,2.53,1.3,1.3,0,0,0,.94.27,4.13,4.13,0,0,1,.9,0A1.14,1.14,0,0,1,359.37,466.62Z" transform="translate(-25.88 -286.71)"/><path class="cls-2" d="M386.49,458.81c-.05,1-.17,2.3-.36,4-.22.48-.49,1.15-.82,2-.07.36-.21.88-.41,1.54a4.32,4.32,0,0,1-.72,1c-.47.59-.86.88-1.15.88h-7c-.13,0-.95,0-2.47-.08l-2.47-.08h-4.24l-1.69-.15q-1.51-.15-1.71-.15h-4.15l-.36-.39a12.58,12.58,0,0,1,2.39-1.65,2.59,2.59,0,0,0,1.43-2.2v-8.68a33.09,33.09,0,0,1,.66-5.69,6.33,6.33,0,0,1-.14-2.74,1.43,1.43,0,0,1-.49-1.16s.18-.79.55-2.25a1.87,1.87,0,0,0-.28-.77c-.25-.46-.39-.7-.41-.72a5.71,5.71,0,0,1-.16-1.81V437.9a4.2,4.2,0,0,0-.39-1.51,2.87,2.87,0,0,0-1.35-1.26c-.55-.24-1.09-.49-1.64-.75.25-.6.53-.92.82-1a16,16,0,0,0,2.45.06l1.7-.41h4.86c.08,0,.63.06,1.66.19s1.82.2,2.35.22c.22,0,2.06-.12,5.5-.36.79-.05,2.85,0,6.18.17a.86.86,0,0,1,.44.74,2.19,2.19,0,0,1-.18.71,2.09,2.09,0,0,0-.17.69c0,.6-.22,2.6-.58,6a2.28,2.28,0,0,1-.8.52,30.18,30.18,0,0,1-1-2.94,2.38,2.38,0,0,0-2-1.9l-1.23-.27a2.63,2.63,0,0,0-1.32-.05,19.55,19.55,0,0,1-5.25.08,12.72,12.72,0,0,0-3.35.08c-.22.06-.37.27-.44.63a8.88,8.88,0,0,1,.08,5.69,5.48,5.48,0,0,1,.05,1.37c0,.26,0,.79-.13,1.6a6,6,0,0,0-.06,1.59,1.41,1.41,0,0,0,.52.72h10.36l1-.33a1.88,1.88,0,0,0,1.08-.86,14.89,14.89,0,0,1,1-2,1.09,1.09,0,0,1,1.13.6c-.07,1-.15,2.38-.22,4,0,1.08-.15,2.67-.39,4.76-.07.31-.44.41-1.1.3a10.08,10.08,0,0,0-1.26-1.73,5.21,5.21,0,0,0-3.05-1.27h-3.79a12.92,12.92,0,0,1-1.4-.13,11.75,11.75,0,0,0-1.57-.14c-1,0-1.58.28-1.84.85a4,4,0,0,0-.44,1.48,15.75,15.75,0,0,0,.19,1.87,12.73,12.73,0,0,1,.17,2.12,14,14,0,0,1-.26,1.44,8.07,8.07,0,0,0-.24,1.66,3.26,3.26,0,0,0,.11.86,3.8,3.8,0,0,0,1.5,1.59,5.51,5.51,0,0,0,2.24,1.07l.28.11a1.52,1.52,0,0,0,.49.08h4.56a6,6,0,0,0,2.58-.49,8.58,8.58,0,0,0,2.83-2.2,5.73,5.73,0,0,0,1.63-3.24A2.1,2.1,0,0,1,386.49,458.81Z" transform="translate(-25.88 -286.71)"/><text class="cls-3" transform="translate(189.9 64.97) rotate(90) scale(0.04 1)">i</text><path class="cls-2" d="M300,342.94a.71.71,0,0,1-.19.24.82.82,0,0,0-.31.69.63.63,0,0,0,0,.23,1.45,1.45,0,0,0,.21.41.24.24,0,0,1,.06.11.17.17,0,0,0,0,.07.16.16,0,0,1,0,.08.36.36,0,0,0,0,.11,1.51,1.51,0,0,1,.11.77,2.89,2.89,0,0,1,0,.59c0,.05-.05.06-.08,0a3.51,3.51,0,0,0-.26-.25c-.31-.3-.35-.35-.38-.41l-.06-.14a.42.42,0,0,1,.06-.54c.07-.09.1-.14.09-.14a.82.82,0,0,0-.2.12.36.36,0,0,0-.17.27,2.24,2.24,0,0,0,0,.24v.1l0,.07a3.48,3.48,0,0,0,.32.39c.27.31.33.4.36.53s0,.13,0,.18l0,.08s0,.05,0,.06-.05,0-.05.06,0,0-.15.16l-.19.15a.18.18,0,0,0-.08.09s0,.07-.07.08a.07.07,0,0,0,0,.05.77.77,0,0,1-.07.17.31.31,0,0,0-.05.12.08.08,0,0,1,0,.06s-.18-.14-.37-.45c-.06-.11-.15-.24-.19-.3l-.13-.18a.65.65,0,0,1-.11-.66.37.37,0,0,1,.14-.16s.05,0,.05-.06,0,0,0,0,0,0-.06,0L298,346a.55.55,0,0,0-.27.32c0,.09,0,.13-.06.13l-.1-.06-.15-.09-.72-.35c-.21-.1-.25-.3-.1-.58a.31.31,0,0,1,.08-.12l.21-.15a3.55,3.55,0,0,1,.66-.38,1,1,0,0,0,.28-.15.21.21,0,0,0,.06-.26s-.06-.1-.07-.09l0,.08c0,.16-.05.19-.24.27l-.37.15a1.37,1.37,0,0,0-.58.36c-.3.26-.36.34-.38.45s0,.11-.06.11l-.16-.15a.7.7,0,0,1-.26-.4.91.91,0,0,1,0-.79,1.44,1.44,0,0,0,.11-.43.64.64,0,0,0-.11-.42l0,0s0,0,0,.08a1,1,0,0,1-.15.74l-.1.21s0,0,0,0a.77.77,0,0,1-.29-.14c-.21-.15-.24-.18-.28-.33s-.06-.17-.08-.16a.91.91,0,0,0,0,.25c0,.14.09.23.32.4s.26.19.29.39a1.57,1.57,0,0,0,.15.39l.06.16a.21.21,0,0,0,.06.1l.12.13a.55.55,0,0,0,.23.19.71.71,0,0,1,.15.12.77.77,0,0,0,.3.21,4.1,4.1,0,0,0,.38.18l.11.06.15.08.19.11a3.32,3.32,0,0,1,.39.38c.11.13.21.29.19.31l-.14,0a2.39,2.39,0,0,0-.46,0h-.66a4.47,4.47,0,0,1-.79,0,2.65,2.65,0,0,1-.63-.19L295,347a.55.55,0,0,1-.23-.11.54.54,0,0,1-.15-.22.36.36,0,0,1,0-.2v-.13l.05-.07a.42.42,0,0,0,.08-.17.48.48,0,0,1,.05-.14c.05-.12.06-.15,0-.2s-.06-.08-.08-.08,0,.06,0,.11,0,.12-.12.22a.29.29,0,0,0-.08.11.62.62,0,0,1-.06.14.52.52,0,0,0-.1.22s0,0-.07,0a.8.8,0,0,1-.16-.3,1.2,1.2,0,0,0-.16-.32.53.53,0,0,1-.09-.16c-.06-.14-.3-.27-.41-.22l0,0,.06,0c.15.06.24.2.36.56a.88.88,0,0,0,.17.38.33.33,0,0,1,.07.15,1.59,1.59,0,0,0,.42.41,1.74,1.74,0,0,0,.64.28.25.25,0,0,1,.09,0l.09,0,.09,0a.13.13,0,0,0,.1,0c.12,0,.2.05.17.08l-.34.15-.62.27-.31.13-.21.05a1.27,1.27,0,0,1-.72,0l-.19,0a.4.4,0,0,1-.12-.06,1.92,1.92,0,0,0-.54-.28c-.05,0-.09,0-.07,0s0,0,.09.06a1.19,1.19,0,0,1,.33.22,1,1,0,0,0,.72.26,2.49,2.49,0,0,0,.62-.05l.21,0,0,.06-.12.22a1.3,1.3,0,0,1-.18.32,2.09,2.09,0,0,1-.29.19.33.33,0,0,1-.19,0c-.11,0-.13,0-.06,0a.63.63,0,0,0,.24,0,1.88,1.88,0,0,0,.37-.16,1,1,0,0,0,.33-.41,1.61,1.61,0,0,1,.28-.4,1.59,1.59,0,0,1,.6-.31,3.31,3.31,0,0,1,1.14-.29,2.34,2.34,0,0,1,1.17.11,2.88,2.88,0,0,1,.37.39,1,1,0,0,1,.2.47.47.47,0,0,1,0,.2c0,.07,0,.22-.05.33a1.4,1.4,0,0,1-.11.48c0,.05,0,.06,0,.22a6.6,6.6,0,0,1-.07.67,6,6,0,0,0-.09,1.06,4.4,4.4,0,0,0,.05.76,1.19,1.19,0,0,0,.11.33,1.38,1.38,0,0,1,.08.25,1.27,1.27,0,0,1,0,.39v.07l-.11.11a.69.69,0,0,1-.44.26,1.57,1.57,0,0,1-.48.1,2.57,2.57,0,0,0-.78.21,2.06,2.06,0,0,0-.57.39l-.2.15a1,1,0,0,1-.45.15h-.06l.07,0a.53.53,0,0,0,.22,0,.79.79,0,0,0,.24,0,1.69,1.69,0,0,0,.56-.34,1.14,1.14,0,0,1,.4-.26.42.42,0,0,1,.24,0s0,.12,0,.26,0,.28-.07.29,0,0,0,.05a.19.19,0,0,0,.22-.1.2.2,0,0,0,0-.1c0-.05,0-.06,0-.14a.3.3,0,0,0,0-.14.09.09,0,0,1,0-.08.36.36,0,0,1,.15-.08l.2-.05a6.41,6.41,0,0,0,.67-.21c.26-.09.28-.1.38-.21s.15-.13.16-.11a1,1,0,0,1,0,.3.84.84,0,0,0,0,.43,1.3,1.3,0,0,0,.43.52,1.78,1.78,0,0,1,.35.38c0,.06,0,.06,0,.1s0,.08.05,0,.06-.09.05-.18-.09-.25-.28-.44a1.14,1.14,0,0,1-.12-.12h.14a1.1,1.1,0,0,0,.3,0,1.16,1.16,0,0,1,.4,0,.09.09,0,0,1,.05,0l0,0s0-.07-.06-.13l0,0H300a1.18,1.18,0,0,0-.26,0l-.22,0a.25.25,0,0,1-.17-.05c-.13-.07-.15-.09-.17-.14s0-.16.05-.35a1.32,1.32,0,0,0,.07-.23s0-.07,0-.07.05,0,.14.09a2.21,2.21,0,0,0,.74.37l.38.14a.49.49,0,0,0,.16.05,1.8,1.8,0,0,1,.5.11,4.29,4.29,0,0,1,.53.22.76.76,0,0,1,.1.12c.07.1.11.13.13.12l0-.12v-.11l0,0a.68.68,0,0,0-.12-.11l-.14-.1-.1-.05-.15-.07-.22-.08c-.11,0-.19-.07-.19-.09s0,0,.06,0a2.68,2.68,0,0,0,.44-.1l.32-.08h.27l.17,0s0-.08-.08-.09a.64.64,0,0,0-.38-.05,1.82,1.82,0,0,0-.38,0,1.57,1.57,0,0,1-.84.05l-.15,0-.08,0a.52.52,0,0,0-.21-.07h-.05l-.14-.12a3.42,3.42,0,0,1-.61-.8,2.82,2.82,0,0,1-.42-1.23,4.21,4.21,0,0,1,0-.71,7.93,7.93,0,0,1,.52-2.27c0-.08,0-.11.08-.13l.05-.05a.41.41,0,0,1,.18-.16l.14-.08.16-.08a2.71,2.71,0,0,1,1-.15,2.48,2.48,0,0,1,.47.05,2.35,2.35,0,0,1,.5.31l.12.09a.51.51,0,0,1,.12.21.54.54,0,0,0,.2.26,1.25,1.25,0,0,0,.38.24.53.53,0,0,0,.25,0s.11-.06.11-.1,0,0-.09,0a.24.24,0,0,1-.21,0,.73.73,0,0,1-.34-.3.19.19,0,0,1,0-.14v-.07h0l.13,0a2.78,2.78,0,0,0,1.22,0,.77.77,0,0,1,.63.06.35.35,0,0,1,.17.14c.08.1.1.11.19.11H305l-.06-.06a.76.76,0,0,1-.11-.14.52.52,0,0,0-.08-.11l-.19-.1-.18-.08s0,0,0-.06,0,0,.38-.15a1.92,1.92,0,0,1,.68-.12c.18,0,.19,0,.25.06s0,0,.05,0,0,0,0-.09a.34.34,0,0,0-.2-.12,1.07,1.07,0,0,0-.25,0,2,2,0,0,0-.6.1l-.24.06a1.15,1.15,0,0,0-.26.1.83.83,0,0,1-.33.12.65.65,0,0,0-.16,0,1.58,1.58,0,0,1-.53.06,1.27,1.27,0,0,1-.58-.11,1.3,1.3,0,0,1-.37-.17.2.2,0,0,0-.11-.06.48.48,0,0,1-.14-.06,1,1,0,0,0-.4-.15,1.31,1.31,0,0,1-.32-.1l.08-.06a2.75,2.75,0,0,0,.3-.26,1.58,1.58,0,0,1,.44-.34,1.63,1.63,0,0,1,.64-.12.63.63,0,0,0,.22,0,.53.53,0,0,1,.2,0h.19a.7.7,0,0,0,.28,0c.15,0,.18,0,.25-.06s.1-.08.09-.09l-.08,0a.53.53,0,0,1-.2,0,.41.41,0,0,1-.27-.07s0,0,0-.05h0a1.45,1.45,0,0,0,.29-.14l.2-.17c.11-.1.13-.12.22-.13s0,0,0-.05-.21,0-.36.14a.68.68,0,0,1-.18.13l-.16.09a.8.8,0,0,1-.25.11,2.67,2.67,0,0,1-.75.1h-.29s0-.06,0-.16a2.35,2.35,0,0,1,.31-.57.27.27,0,0,1,.12-.1l.13-.05a2.73,2.73,0,0,1,.47,0h.14l.1-.08h-.08l-.23,0a1,1,0,0,0-.35-.05h-.07v0a.67.67,0,0,1,.19-.17,1.65,1.65,0,0,1,.47-.2,4.21,4.21,0,0,1,.69-.06h.3c.13,0,.16,0,.18,0s0-.05,0-.06h-.1a.93.93,0,0,1-.34,0,1.93,1.93,0,0,0-.68,0,1.71,1.71,0,0,0-1,.57.76.76,0,0,0-.1.15l-.15.2a2.57,2.57,0,0,0-.28.46,2.06,2.06,0,0,1-.32.51.39.39,0,0,1-.11.09l-.11,0a1,1,0,0,0-.18.11,1,1,0,0,1-.54.22,3.18,3.18,0,0,0-.59.16l-.12,0a1,1,0,0,0-.27.1l-.16.08a.21.21,0,0,0-.08.06s-.09.08-.11.07a.35.35,0,0,1,0-.18,1.07,1.07,0,0,1,.28-.35,1.57,1.57,0,0,0,.44-.59.82.82,0,0,1,.09-.17,2.27,2.27,0,0,0,.18-1.09,1.52,1.52,0,0,1,0-.36.8.8,0,0,1,.4-.52.47.47,0,0,1,.31,0c.09,0,.1,0,.15,0a.31.31,0,0,0,.16-.09l0,0h-.15a.76.76,0,0,1-.33,0,.7.7,0,0,1,.22-.15,1.57,1.57,0,0,1,.4-.14l.1,0,.08,0a.39.39,0,0,0,.24,0,.07.07,0,0,0,0-.06.39.39,0,0,0-.29-.08,1.23,1.23,0,0,0-.49.12l-.22.09s-.06,0-.1.07l-.2.14c-.1.07-.14.1-.15.14l-.11.11a.39.39,0,0,0-.08.11c0,.05-.06.09-.08.08s0,0-.06-.09a1.22,1.22,0,0,0-.21-.36.92.92,0,0,1-.23-.5.24.24,0,0,0,0-.08.11.11,0,0,1,0-.08,1.23,1.23,0,0,0,0-.16c.05-.26.1-.36.21-.43l0,0,0-.07q.07-.09,0-.12S300,342.91,300,342.94Z" transform="translate(-25.88 -286.71)"/><path class="cls-2" d="M391.79,339.06c0,.05,0,.18.07.28l.05.18-.05.15a.34.34,0,0,0,0,.19.17.17,0,0,1,0,.07s0,0,0,0a.19.19,0,0,1,.07.08.44.44,0,0,1,0,.39c-.05.08-.08.07-.08,0a1.5,1.5,0,0,0,0-.2.35.35,0,0,1,0-.16v0l0,0s0,.07,0,.18a1,1,0,0,1,0,.29.56.56,0,0,1-.15.31c-.21.28-.25.32-.28.29a1.15,1.15,0,0,1-.09-.19,3.27,3.27,0,0,0-.34-.58l0-.05.11-.11a.43.43,0,0,0,.15-.29s0,0,0,.07a.46.46,0,0,1-.13.21l-.1.09a.21.21,0,0,1-.08-.07l-.07-.05s0,.07.08.14a1.73,1.73,0,0,1,.23.45s0,0-.16,0a1.35,1.35,0,0,1-.3-.08.77.77,0,0,1-.28-.19,3.48,3.48,0,0,0-.27-.24l-.16-.15a.81.81,0,0,1-.05-.15.41.41,0,0,1,0-.29.7.7,0,0,0,0-.32,1.32,1.32,0,0,0-.08-.22c-.05-.08-.05-.07,0,0a.8.8,0,0,1,.06.2.63.63,0,0,1,0,.31.53.53,0,0,0,0,.31l0,.13.27.27a1.23,1.23,0,0,0,.45.35.68.68,0,0,0,.33.11l.17,0s.05.06.08.17a.72.72,0,0,1,0,.36v.19l.08.2.08.2.21.14a1,1,0,0,1,.32.28l.12.14v.21c0,.11,0,.29,0,.39s0,.21.06.25l0,.07,0,0a0,0,0,0,1,0,0,.38.38,0,0,1-.23,0,.07.07,0,0,0-.05,0l-.06,0a.05.05,0,0,0,0,0l-.14,0c-.15-.07-.22-.16-.31-.39s-.07-.19-.08-.22l-.11-.12c-.08-.07-.09-.09-.09-.15a.67.67,0,0,0-.05-.19.7.7,0,0,1,0-.43c0-.06,0-.11,0-.11l-.05.12a.76.76,0,0,0,0,.47.89.89,0,0,1,0,.15c0,.07,0,.09.1.18a.53.53,0,0,1,.16.29.77.77,0,0,0,.3.46l.21.13a.59.59,0,0,0,.28.11l.22,0c.06,0,.09,0,.2.2l.09.14-.06.14c-.06.16-.06.16,0,.63l0,.2.11.12c.17.21.17.18.08.36a.34.34,0,0,1-.08.15l-.16-.12a4.48,4.48,0,0,0-.36-.29.93.93,0,0,0-.42-.23l-.35-.07a.44.44,0,0,1-.19-.06,3.12,3.12,0,0,1-.27-.29,2.31,2.31,0,0,0-.26-.27,5.1,5.1,0,0,0-.7-.16l-.17,0a.32.32,0,0,1,0-.13,2,2,0,0,0,0-.23.45.45,0,0,1,.06-.24.75.75,0,0,0,.06-.46l0-.1.09-.11c.11-.13.12-.16,0-.07l-.14.12-.06.05v.13a.9.9,0,0,1-.12.43.39.39,0,0,0-.07.26.6.6,0,0,1-.08.32l-.14,0a3.51,3.51,0,0,1-.62-.32s0,0,0-.15l0-.13,0-.18a1.42,1.42,0,0,1,0-.7l.05-.17-.07-.12-.18-.31-.11-.17v-.69l-.06-.14a1.33,1.33,0,0,1-.08-.33.55.55,0,0,0,0-.2v.18a1.21,1.21,0,0,0,.07.35l.05.16,0,.33v.33l.14.24.17.31,0,.07-.06.15a1.57,1.57,0,0,0-.1.69.82.82,0,0,1,0,.31s0,.08-.05.08l-.12-.06c-.08,0-.11-.07-.13-.12s-.06-.1-.19-.19a.93.93,0,0,0-.34-.18l-.18-.06-.13-.13a1,1,0,0,1-.18-.28c-.08-.2-.1-.21-.05,0a.66.66,0,0,0,.18.35l.11.14.17.07a.93.93,0,0,1,.32.18c.14.11.17.16.11.16l-.25,0c-.26,0-.31,0-.2,0l.09.05a2,2,0,0,1-.63.33c-.07,0-.07,0,0,0a2.74,2.74,0,0,0,.58-.25.5.5,0,0,1,.18-.08l.19.06a.73.73,0,0,1,.34.17c.15.11.16.12.15.17s0,.05-.14.09l-.26.06c-.11,0-.12,0-.3,0l-.2,0-.17.07a1.73,1.73,0,0,1-.47.12s0,0,0-.08v-.07l0,.07c0,.08-.08.1-.12.05a2.33,2.33,0,0,1-.15-.21.3.3,0,0,0-.07-.09l-.22-.26a.66.66,0,0,1-.18-.3.71.71,0,0,0-.14-.29,1.7,1.7,0,0,1-.31-.51,1.42,1.42,0,0,0-.2-.39l-.15-.26v-.27l0,.13,0,.12.08.18a2.57,2.57,0,0,0,.12.27.85.85,0,0,1,.08.24,1.44,1.44,0,0,0,.26.48.64.64,0,0,1,.16.32.62.62,0,0,0,.1.22l.07.12.1.11a.42.42,0,0,1,.09.13l0,0a.4.4,0,0,1,.13.19s-.05,0-.3,0c-.08,0-.09,0-.05,0s0,0,0,0a1.11,1.11,0,0,1-.21,0,.4.4,0,0,1-.26-.09.5.5,0,0,1-.1-.11s0,0,0,0,0,0,0,.07.13.17.31.22a1.49,1.49,0,0,0,.4,0h.24v.16a.93.93,0,0,0,.12.49,1.28,1.28,0,0,1,.07.16s0,.05-.08.05l-.27,0-.25,0-.31-.09a1.56,1.56,0,0,1-.66-.36.85.85,0,0,0-.3-.19.43.43,0,0,1-.26-.18l-.09-.11,0-.16a1.55,1.55,0,0,0-.06-.31.52.52,0,0,0-.15-.24.39.39,0,0,1-.12-.34c0-.1,0-.15,0-.06a1.23,1.23,0,0,1,0,.17v.12l.08.12a1,1,0,0,1,.13.59v.13l.1.15a.47.47,0,0,0,.24.21c.2.08.42.3.37.35l-.15,0-.31,0a1.37,1.37,0,0,1-.43-.16l-.26-.12.25.13a1.09,1.09,0,0,0,.41.16l.24.06.16,0s.07,0,.07.05l0,0,.05,0a1.12,1.12,0,0,0,.47.18c.24,0,.24.07,0,.15a4.66,4.66,0,0,1-1.29.24,1.51,1.51,0,0,1-.48,0l-.21,0-.2.07-.35.14a1.06,1.06,0,0,1-.37.1,2.18,2.18,0,0,0-.5.13l-.29.11h0l.34-.09a3.27,3.27,0,0,1,.49-.1,1.21,1.21,0,0,0,.34-.09,2.72,2.72,0,0,1,.55-.2l.21,0a.66.66,0,0,0,.26,0l.59-.05a5,5,0,0,0,.95-.14l.15,0,0,.05.15.14c.09.08.1.09.31.13l.37.09a.68.68,0,0,0,.35,0,2.55,2.55,0,0,0,.41-.05.21.21,0,0,1,.15,0c.1,0,.1,0,.14.16a.38.38,0,0,0,.13.2.76.76,0,0,0,.29.17l.34.13a.81.81,0,0,0,.42.07h.28l.2.12.25.15a2.91,2.91,0,0,1,.37.67.74.74,0,0,0,.26.33,1.1,1.1,0,0,0,.49.32,1.68,1.68,0,0,1,.31.15.94.94,0,0,1,0,.25c0,.35,0,.34.21.56a1.6,1.6,0,0,1,.17.21s0,.08-.05.13a.39.39,0,0,0-.07.28c0,.17,0,.17,0,.22s0,.18-.05.16a1.17,1.17,0,0,0-.32.12.85.85,0,0,1-.37.14l-.1,0,.11,0a.72.72,0,0,0,.46,0l.14-.05.05.05a.28.28,0,0,0,.22,0s0,0,0,0a.16.16,0,0,1,0,.2,6.82,6.82,0,0,0-.85,1.23l-.08.14-.31.06a6,6,0,0,1-1.05.14,4.16,4.16,0,0,0-.5,0,3.76,3.76,0,0,0-.77.32c-.21.1-.26.13-.24.14a3.85,3.85,0,0,0,.61.06l.34,0,.61.05.51,0s0,0-.13.08l-.81.17a4.38,4.38,0,0,0-1.14.29,1.52,1.52,0,0,0-.29.2l-.54.45-.68.56-.34.28H386l.42-.14a13.53,13.53,0,0,0,1.37-.54l.26-.14a.77.77,0,0,1,.21-.1c.09,0,1.23-.15,2.33-.26a3.84,3.84,0,0,0,.86-.12,2.1,2.1,0,0,0,.54-.25c.11-.09.15-.09.64,0a4.12,4.12,0,0,0,1.19.16,18.77,18.77,0,0,0,2.11-.14c.42,0,.79-.09.82-.1l.34,0c.35,0,.38,0,.21-.1l-.21-.09a3.11,3.11,0,0,0-1.21-.22l-1.39-.16s-.05,0-.05,0a.76.76,0,0,1,.15-.17.82.82,0,0,0,.31-.41c0-.08,0-.1.07-.11a4.89,4.89,0,0,1,.7-.17l.89-.22.55-.15.24,0,.43.06.19,0a3.21,3.21,0,0,0-.55-.14,1.67,1.67,0,0,1-.7-.29,2.48,2.48,0,0,1-.7-.51,1.2,1.2,0,0,0-.41-.31s-.06,0-.06-.05a1,1,0,0,1,.27-.08,1,1,0,0,0,.31-.11c.38-.27.39-.28.44-.41s.07-.16.15-.16a2.44,2.44,0,0,1,.64,0,.69.69,0,0,0,.28.06l.2,0,.12-.07a.39.39,0,0,1,.24-.07.46.46,0,0,0,.31-.1c.08-.05.07-.1,0-.22a.43.43,0,0,1-.07-.14c0-.05,0-.06-.1-.06s-.06,0,0,0,0,0,0,.05l-.06,0a.11.11,0,0,0,0,.07c0,.06,0,.06-.12.07a.39.39,0,0,0-.21.06.28.28,0,0,1-.36,0,.35.35,0,0,0-.2-.07l-.09,0a.21.21,0,0,1,.07-.08s.11-.13.17-.22a.52.52,0,0,1,.16-.17l.41-.25c.05,0,.05,0,.11,0a.93.93,0,0,0,.44.06,1,1,0,0,0,.37-.15,5.38,5.38,0,0,0,.5-.29.69.69,0,0,1,.26-.05.76.76,0,0,1,.36,0l.15,0-.06,0c-.1,0-.12-.06-.06-.08l.07,0,.19-.07.35-.14a1.68,1.68,0,0,0,.41-.22l.31-.19.06,0a2.53,2.53,0,0,0-.47.23,2.87,2.87,0,0,1-.37.15l-.34.11a2,2,0,0,1-.6.12,2.89,2.89,0,0,1-.5-.25s.05,0,.15-.06l.1,0s0,0,0,0l-.18,0-.14,0-.11-.08a.68.68,0,0,0-.27-.13l-.16-.06a1.4,1.4,0,0,1,.25-.28c.26-.27.26-.27.3-.39l.07-.27,0-.15.17-.07.17-.07.09-.13a1.65,1.65,0,0,0,.15-.25,1.21,1.21,0,0,1,.19-.23,1,1,0,0,0,.18-.2c.08-.12.09-.14,0-.06l-.23.23a2.46,2.46,0,0,0-.21.24,1.8,1.8,0,0,1-.14.22l-.1.16-.17.07-.17.07,0,.12a3,3,0,0,1-.12.41,1.82,1.82,0,0,1-.36.31s0,0,0-.08,0-.12,0-.18a.3.3,0,0,1,.1-.2l.07-.1,0-.13,0-.13-.13-.13-.21-.2s-.05-.07-.09-.22,0-.18,0-.18l.15-.11c.1-.08.14-.12.16-.18a.24.24,0,0,1,.1-.1c.08,0,.1-.07.11-.2a.32.32,0,0,0-.05-.22,2,2,0,0,0-.13-.25l-.08-.14a.7.7,0,0,1,.11-.17.57.57,0,0,0,.11-.19s0,0,0,0a.88.88,0,0,1-.16.2c-.1.1-.14.16-.13.17a2.08,2.08,0,0,1,.11.27.76.76,0,0,1,.07.3c0,.09,0,.11-.09.13a.16.16,0,0,0-.1.1c0,.07-.05.1-.17.18a.55.55,0,0,1-.16.09.29.29,0,0,1-.1-.06c-.13-.09-.16-.1-.08,0s.11.13.08.18a.38.38,0,0,0-.08.17.45.45,0,0,1-.14.23l-.08.09-.28,0-.28,0-.16-.07-.22-.08c-.11,0-.13-.08-.07-.29a1.76,1.76,0,0,0,0-.88.8.8,0,0,1-.05-.16.55.55,0,0,1,.11-.16c.1-.12.11-.14.11-.2s0-.09.08-.15a.46.46,0,0,0,.09-.14s0-.07,0-.07l.15.05.18.06a.33.33,0,0,1,.13.12.36.36,0,0,0,.23.16l.15.05.13,0a.3.3,0,0,1,.23,0c.14.06.17,0,0,0l-.11-.06-.13,0a.35.35,0,0,1-.25,0,.35.35,0,0,1-.2-.16c-.06-.09-.08-.1-.15-.12a1.28,1.28,0,0,1-.36-.15s0,0,0-.09a1,1,0,0,0,.12-.17l.07-.1a3.94,3.94,0,0,1,.58-.19,2.9,2.9,0,0,0,.63-.18l.35-.13a.58.58,0,0,0,.33-.21.67.67,0,0,0,.17-.24.42.42,0,0,1,.07-.15l.15-.08a.76.76,0,0,0,.25-.16,1.52,1.52,0,0,1,.47-.31l.11-.05-.12,0a1.33,1.33,0,0,0-.5.3,1,1,0,0,1-.28.18l-.15.06-.06.15a.65.65,0,0,1-.17.26l-.11.1-.37.12a4.85,4.85,0,0,1-.68.19s0-.08.31-.36l.3-.33-.2.14-.21.15s0,0-.07-.09a.45.45,0,0,1-.06-.23,1.44,1.44,0,0,0-.21-.56.5.5,0,0,1-.07-.17,1.31,1.31,0,0,1,.06-.26.82.82,0,0,0,0-.37.89.89,0,0,0-.07-.31.5.5,0,0,0-.06-.13.4.4,0,0,0,0,.13,1.21,1.21,0,0,1,0,.59l-.07.24,0,.15.08.13a1.57,1.57,0,0,1,.12.3.66.66,0,0,1,0,.29.29.29,0,0,0,.05.24c0,.06.06.11.05.13a3.18,3.18,0,0,1-.37.27s0,0,0-.11a1.67,1.67,0,0,0,.08-.33l-.1.2-.13.23a1.19,1.19,0,0,1-.47.17.56.56,0,0,1-.17,0s0-.21.07-.33l.07-.14a1.27,1.27,0,0,0-.17.24s0,.12-.07.19l0,.14-.13.12c-.08.06-.19.15-.26.19a1,1,0,0,1-.46.14,2.83,2.83,0,0,0-.71.16c-.14.06-.16.06-.15,0s0,0,.08-.05a.85.85,0,0,0,.49-.38l.05-.1-.05-.07-.09-.16-.05-.08,0-.11c.05-.16.05-.2,0-.23a.48.48,0,0,1-.06-.11.33.33,0,0,0-.23-.19c-.11,0-.12,0,0,0a.27.27,0,0,1,.19.18l0,.1s0,.07,0,.22l0,.13.08.15a1,1,0,0,1,.07.17s-.09.12-.17.18a.25.25,0,0,1-.5-.09.74.74,0,0,1,.13-.29s0-.05,0-.05a.48.48,0,0,0-.17.13s-.05,0-.08,0-.05,0-.05,0,0-.09.06-.18a.67.67,0,0,0,.06-.17.6.6,0,0,0-.08-.13l-.08-.12v-.25a1.11,1.11,0,0,0,0-.33c0-.05,0-.14,0-.2a.76.76,0,0,0-.19-.46.87.87,0,0,1-.15-.2c-.06-.11-.06-.1,0,0a.77.77,0,0,0,.11.19.66.66,0,0,1,.13.44c0,.06,0,.17,0,.24a.4.4,0,0,1,0,.24.59.59,0,0,0,.08.44.57.57,0,0,1,.07.13.9.9,0,0,1-.12.24,2,2,0,0,1-.45-.22s0,0,0-.08,0-.08,0,0l-.07,0s-.08-.12-.13-.35a.82.82,0,0,0-.12-.29.58.58,0,0,1-.12-.25c0-.05,0-.08,0-.08l0,.11a.66.66,0,0,0,.09.19.53.53,0,0,1,.11.24,3.24,3.24,0,0,0,.12.43c0,.06,0,.08,0,.14s-.09.07-.09,0-.18-.59-.2-.64l-.16-.1-.23-.14c-.13-.09-.14-.09-.05,0a1.92,1.92,0,0,0,.21.16l.12.08a.55.55,0,0,1,0,.12,1.85,1.85,0,0,0,.06.26,1.29,1.29,0,0,1,.05.24v.09h-.17a.69.69,0,0,0-.18.18c-.14.17-.15.18-.28.23s-.28.09-.32.06a.9.9,0,0,1-.19-.18c-.14-.16-.15-.17-.15-.24a.52.52,0,0,0,0-.14s0-.06,0-.16,0-.18,0-.27,0-.25.05-.35l0-.19.14-.21.14-.2,0-.12,0-.13.09-.2A1.28,1.28,0,0,0,393,341c0-.08,0-.14,0-.13a.25.25,0,0,0,0,.12,1.1,1.1,0,0,1-.09.28c-.12.29-.12.28-.07.41l0,.12-.15.19-.14.19-.07.25c0,.13-.08.31-.1.39-.05.3-.08.27-.12-.1l0-.27-.14-.18a1,1,0,0,0-.34-.28c-.11-.06-.19-.12-.19-.14s0,0,.06,0,.15-.07.17-.21a1.84,1.84,0,0,0,0-.29v-.16l-.06-.09a.31.31,0,0,1-.06-.12,1.07,1.07,0,0,1,.21-.39l.11-.14v-.15A.42.42,0,0,0,392,340c-.08-.14-.08-.15,0-.35l0-.11-.09-.27C391.78,339,391.74,338.88,391.79,339.06Zm-.09,2c0,.06.05.07,0,.21a1,1,0,0,1-.08.39l-.11,0h-.09l-.05-.09a.37.37,0,0,1,0-.18c0-.09,0-.1.09-.2l.13-.17a.11.11,0,0,1,.06-.06Zm2.51,2.06a.5.5,0,0,0,.14.1c.27.14.28.16.24.25a.28.28,0,0,0,0,.17c0,.07.05.23.07.35s0,.24,0,.26,0,.05-.07.1a.3.3,0,0,1-.11.06,2.13,2.13,0,0,1-.34-.38.27.27,0,0,1-.06-.18.3.3,0,0,0-.1-.21c-.1-.09-.12-.16-.05-.18s0,0,0-.1a.25.25,0,0,1,.05-.18Q394.15,343.07,394.21,343.14Zm.62.4,0,0s0,0,0-.08S394.83,343.5,394.83,343.54Zm-1,.17a.25.25,0,0,1,.09.22c0,.12,0,.12.15.3a1.13,1.13,0,0,1,.21.38,1.27,1.27,0,0,1-.27.26,1.48,1.48,0,0,1-.35.09s-.08-.08-.18-.26l-.14-.25.08-.18c.09-.21.26-.56.28-.61a.07.07,0,0,1,0,0Zm2.87.3c0,.13,0,.16-.1.19s-.1.05-.2.17a1.29,1.29,0,0,1-.56.37l-.41.22-.23.12a.44.44,0,0,1-.09-.14.33.33,0,0,1-.07-.3,1,1,0,0,1,.36-.29,2.63,2.63,0,0,1,.73-.21,1.1,1.1,0,0,0,.43-.14C396.73,343.91,396.74,343.91,396.74,344Zm-7.88.11c.11.08.12.11,0,.11s-.14,0-.16-.07S388.72,344,388.86,344.12Zm-.28.07a.2.2,0,0,0,.07.12,1.67,1.67,0,0,0,.4.1h.09v.1a.25.25,0,0,1-.05.17,1.07,1.07,0,0,0-.07.19.26.26,0,0,0,0,.21l.07.13s0,0,0,.14a.9.9,0,0,0-.05.16.15.15,0,0,1,0,.06c-.08,0-.33-.24-.4-.42s-.06-.17-.09-.27-.06-.16-.07-.15a.5.5,0,0,0,0,.15c0,.21,0,.21-.37,0s-.3-.16-.33-.27l-.06-.12a1.52,1.52,0,0,0-.41-.13c-.25-.05-.28-.11-.06-.14a1.22,1.22,0,0,0,.27-.09l.16-.06.19,0,.19,0,.19-.05a1.11,1.11,0,0,1,.3-.07C388.54,344.09,388.55,344.1,388.58,344.19Zm8.16.19a.55.55,0,0,1-.11.16.79.79,0,0,0-.11.15l0,.16a1.5,1.5,0,0,1-.05.86.74.74,0,0,0,0,.18c0,.07,0,.08-.06.11-.23.12-.21.11-.25.08a1.56,1.56,0,0,1-.22-.3s0-.09-.05-.16l0-.12-.14-.09c-.08-.05-.15-.09-.14-.1a4.58,4.58,0,0,1,.47-.36,1.66,1.66,0,0,0,.56-.49C396.69,344.35,396.74,344.32,396.74,344.38Zm-7.36,0s0,0,0,.08l0,.07-.09.23c-.06.15-.1.23-.12.23s0,0,0-.2a.69.69,0,0,0,0-.37v-.07h.06Zm-2.46,0c.05.05.05.06,0,.13s0,.08,0,.08a.5.5,0,0,1-.09-.25S386.88,344.4,386.92,344.45Zm2.88,0,.29.07.17.06.11.15a3.36,3.36,0,0,0,.42.5l.21.06.33.09c.15,0,.16,0,.35.24l.19.18V346a.47.47,0,0,0,0,.23.37.37,0,0,0,.27.23c.14,0,.14.05.14.09s0,.19,0,.36,0,.43-.08.46-.08,0-.26-.07a2.07,2.07,0,0,1-.7-.48l-.2-.16a5.09,5.09,0,0,0-.67-.18s0,0,0,0a1.67,1.67,0,0,1,0-.39V346l-.09-.1a.36.36,0,0,0-.18-.11c-.11,0-.12,0-.17-.13s-.05-.09-.22-.18a1.28,1.28,0,0,1-.24-.15l-.06-.06.05-.16a1.71,1.71,0,0,0,.14-.57C389.61,344.44,389.62,344.44,389.8,344.48Zm-2.61,0a.46.46,0,0,1,.05.1.88.88,0,0,0,.06.17c0,.09,0,.09.18.15a1.82,1.82,0,0,0,.33.11c.3.06.37.08.41.13a3.27,3.27,0,0,1,.29.44l.06.11c0,.05,0,.05-.14,0a2.06,2.06,0,0,1-.63-.35c-.09-.07-.1-.07-.26-.08s-.17,0-.21,0a.25.25,0,0,0-.12,0c-.07,0-.09,0-.12-.17a.35.35,0,0,1,0-.14.79.79,0,0,0,0-.21c0-.15,0-.2.05-.2Zm.22,0c.15.05.17.07.21.19a.19.19,0,0,0,.12.15c.18.1,0,.11-.21,0s-.17-.09-.23-.27,0-.14,0-.14Zm7.29.7,0,.15-.1.13-.2.26-.12.17v.18a.65.65,0,0,1-.18.58,2,2,0,0,1-.21.24c-.07.07-.2.13-.23.1a1.56,1.56,0,0,1-.08-.38.69.69,0,0,1,0-.13c0-.06,0-.09,0-.11a.19.19,0,0,1,0-.07,3.76,3.76,0,0,1,.13-.36c.11-.3.12-.34.11-.39a.08.08,0,0,1,0-.07l.28-.11.26-.09.11-.12.11-.11Zm.93.21.13.11a1.3,1.3,0,0,1,0,.17,1,1,0,0,0,.17.41c0,.06,0,.07,0,.06h-.15c-.11,0-.12,0-.22.12a.4.4,0,0,1-.27.14l-.2,0s0,0,0-.09a1.11,1.11,0,0,0,0-.23l0-.14.07-.11a2.24,2.24,0,0,0,.17-.29c.1-.17.12-.2.18-.24l.09,0Zm-8.83,0,.21.06a.17.17,0,1,1-.21.18l-.35,0h-.16l-.11-.08c-.06-.05-.09-.09-.09-.11s0,0,.45-.05A1.25,1.25,0,0,1,386.8,345.45Zm2.75.14c.11.06.13.08.17.17a.29.29,0,0,0,.16.15c.16.08.17.08.12.17a.52.52,0,0,0-.07.15c0,.13-.05.13-.1.11a2.67,2.67,0,0,1-.39-.32l-.07-.1s0-.05,0-.11a.48.48,0,0,0,0-.18c0-.08,0-.12,0-.12Zm8.69.35c0,.14,0,.18.18.34s.15.18.16.26a.22.22,0,0,1-.07.2.39.39,0,0,0-.1.19,1.12,1.12,0,0,1-.17.44l0,.06-.23,0-.23,0-.1-.1a.91.91,0,0,1-.28-.52,1.58,1.58,0,0,1,0-.23c0-.07,0-.07.33-.14a.81.81,0,0,0,.28-.09.05.05,0,0,1,0,0s0,0,0,0a.2.2,0,0,1,.06-.09.7.7,0,0,0,.14-.27,0,0,0,0,1,0,0S398.24,345.88,398.24,345.94Zm-10,.25c.14.05.16.07,0,.06s-.17-.05-.17-.08S388.13,346.15,388.24,346.19Zm8.62.26c.32,0,.32,0,.32.08a2.23,2.23,0,0,0,0,.23,1.08,1.08,0,0,0,.35.53c.13.11.12.11.46.16l.12,0v.1c0,.08,0,.1,0,.14a.55.55,0,0,1-.16.12.32.32,0,0,0-.17.15.65.65,0,0,1-.11.12c-.06,0-.23.09-.26.06a.52.52,0,0,1,0-.12,2.63,2.63,0,0,0-.55-.72l-.15-.14V347c0-.12,0-.15,0-.18a2.26,2.26,0,0,1-.22-.33l.06,0a.21.21,0,0,1,.11,0Zm-.54.33.12.16a.49.49,0,0,1,0,.16l0,.13.14.17a1.8,1.8,0,0,1,.38.74.54.54,0,0,0,.06.18s0,.05,0,.07a.88.88,0,0,0-.06.1l0,.07-.42.11a2.79,2.79,0,0,1-.57.1c-.13,0-.15,0-.21.05l-.13.07a5.11,5.11,0,0,1-.77,0,1.64,1.64,0,0,1-.36-.32.41.41,0,0,1,.06-.1.54.54,0,0,0,.11-.18,3.22,3.22,0,0,0,.08-.44c0-.05,0-.06.12-.13s.19-.12.23-.23a.39.39,0,0,1,.1-.16c.07-.06.07-.06.21-.06h.14l.18-.13c.29-.21.3-.22.35-.35s.11-.16.18-.17S396.26,346.69,396.32,346.78Zm-1.67.74a.05.05,0,0,1,0,0l-.11.09a.28.28,0,0,0-.16.16c-.05.11-.07.12-.08,0s0-.08.1-.19S394.59,347.46,394.65,347.52Zm4,.06c.15.05.31.14.31.18a1.76,1.76,0,0,1-.44.18s0,0,0-.08a.57.57,0,0,0,0-.18c0-.08,0-.14,0-.14Zm.46.28.22.11c.15.06.19.11.1.11a.24.24,0,0,0-.13.06,2.19,2.19,0,0,1-.39.22l-.3.16h-.11a.47.47,0,0,1-.28-.1s0-.07.12-.16.13-.15.13-.18,0-.05,0-.05a3.45,3.45,0,0,1,.51-.21A.25.25,0,0,1,399.12,347.86Zm-1,.09c0,.06,0,.1-.06.1s0-.07,0-.12S398.17,347.89,398.16,348Zm-1.65,1s0,.05-.1.06a2,2,0,0,0-.34.12l-.27.12-.08.14a.57.57,0,0,1-.12.17s-.13,0-.38.08l-.41.05c-.08,0-.08,0-.08,0a1.25,1.25,0,0,1,.06-.36s.06,0,.25,0l.23,0,.2-.08a.92.92,0,0,0,.3-.16l.1-.1H396l.3,0,.17,0Zm-2.56.12a1,1,0,0,0,.26.09c.25.08.26.08.25.12s0,.14,0,.27l0,.23-.18.06-.35.14a.44.44,0,0,1-.19,0,1.79,1.79,0,0,1-.11-.35s.12-.55.14-.61S393.89,349,394,349.06Zm1.44,1.48a1.13,1.13,0,0,1,.47.32,2.73,2.73,0,0,0,.72.51l.23.12s-.08,0-.46,0a3.9,3.9,0,0,0-1.08,0,2.48,2.48,0,0,0-.85.19,1.77,1.77,0,0,0-.26.22L394,352h-.18a1.34,1.34,0,0,1-.49-.05s0-.08.17-.31.19-.28.25-.29a3.85,3.85,0,0,0,.81-.49,3.07,3.07,0,0,1,.55-.39l.11,0Z" transform="translate(-25.88 -286.71)"/></svg>